<svg xmlns="http://www.w3.org/2000/svg" xmlns:xlink="http://www.w3.org/1999/xlink" width="298" zoomAndPan="magnify" viewBox="0 0 223.5 218.249992" height="291" preserveAspectRatio="xMidYMid meet" version="1.0"><defs><clipPath id="dc37e78daf"><path d="M 0.132812 0 L 222.867188 0 L 222.867188 217.503906 L 0.132812 217.503906 Z M 0.132812 0 " clip-rule="nonzero"/></clipPath><clipPath id="e120e5f2e8"><path d="M 0.132812 67.496094 L 222.867188 67.496094 L 222.867188 159.636719 L 0.132812 159.636719 Z M 0.132812 67.496094 " clip-rule="nonzero"/></clipPath><clipPath id="773c46d1ac"><path d="M 0.132812 148 L 222.867188 148 L 222.867188 180 L 0.132812 180 Z M 0.132812 148 " clip-rule="nonzero"/></clipPath><clipPath id="3127b51d08"><path d="M 0.132812 179 L 222.867188 179 L 222.867188 181 L 0.132812 181 Z M 0.132812 179 " clip-rule="nonzero"/></clipPath><clipPath id="7103b1d7a5"><path d="M 0.132812 148 L 222.867188 148 L 222.867188 161 L 0.132812 161 Z M 0.132812 148 " clip-rule="nonzero"/></clipPath><clipPath id="344a05573f"><path d="M 0.132812 145 L 222.867188 145 L 222.867188 196 L 0.132812 196 Z M 0.132812 145 " clip-rule="nonzero"/></clipPath><clipPath id="a9d58a7b5a"><path d="M 0.132812 195 L 222.867188 195 L 222.867188 197 L 0.132812 197 Z M 0.132812 195 " clip-rule="nonzero"/></clipPath><clipPath id="f8ee43f662"><path d="M 0.132812 144.113281 L 222.867188 144.113281 L 222.867188 164 L 0.132812 164 Z M 0.132812 144.113281 " clip-rule="nonzero"/></clipPath><clipPath id="05df7b88d9"><path d="M 0.132812 148 L 222.867188 148 L 222.867188 186 L 0.132812 186 Z M 0.132812 148 " clip-rule="nonzero"/></clipPath><clipPath id="c7c847ab7e"><path d="M 0.132812 185 L 222.867188 185 L 222.867188 187 L 0.132812 187 Z M 0.132812 185 " clip-rule="nonzero"/></clipPath><clipPath id="6f0c4e3116"><path d="M 0.132812 148 L 222.867188 148 L 222.867188 167 L 0.132812 167 Z M 0.132812 148 " clip-rule="nonzero"/></clipPath><clipPath id="0d6ccf501c"><path d="M 0.132812 152 L 222.867188 152 L 222.867188 202 L 0.132812 202 Z M 0.132812 152 " clip-rule="nonzero"/></clipPath><clipPath id="2edfddfaeb"><path d="M 0.132812 151 L 222.867188 151 L 222.867188 168 L 0.132812 168 Z M 0.132812 151 " clip-rule="nonzero"/></clipPath><clipPath id="7749a91977"><path d="M 0.132812 201 L 222.867188 201 L 222.867188 203 L 0.132812 203 Z M 0.132812 201 " clip-rule="nonzero"/></clipPath><clipPath id="7c5a28b86b"><path d="M 0.132812 160 L 222.867188 160 L 222.867188 202 L 0.132812 202 Z M 0.132812 160 " clip-rule="nonzero"/></clipPath><clipPath id="2084e69ae2"><path d="M 0.132812 201 L 222.867188 201 L 222.867188 203 L 0.132812 203 Z M 0.132812 201 " clip-rule="nonzero"/></clipPath><clipPath id="55cdf50079"><path d="M 0.132812 159 L 222.867188 159 L 222.867188 179 L 0.132812 179 Z M 0.132812 159 " clip-rule="nonzero"/></clipPath><clipPath id="5043bb037b"><path d="M 0.132812 164 L 222.867188 164 L 222.867188 203 L 0.132812 203 Z M 0.132812 164 " clip-rule="nonzero"/></clipPath><clipPath id="c437638802"><path d="M 0.132812 201 L 222.867188 201 L 222.867188 203 L 0.132812 203 Z M 0.132812 201 " clip-rule="nonzero"/></clipPath><clipPath id="610f74757c"><path d="M 0.132812 164 L 222.867188 164 L 222.867188 188 L 0.132812 188 Z M 0.132812 164 " clip-rule="nonzero"/></clipPath><clipPath id="9c0e25475b"><path d="M 0.132812 170 L 222.867188 170 L 222.867188 210 L 0.132812 210 Z M 0.132812 170 " clip-rule="nonzero"/></clipPath><clipPath id="6b7f263a5d"><path d="M 0.132812 208 L 222.867188 208 L 222.867188 211 L 0.132812 211 Z M 0.132812 208 " clip-rule="nonzero"/></clipPath><clipPath id="a391a00a6c"><path d="M 0.132812 169 L 222.867188 169 L 222.867188 182 L 0.132812 182 Z M 0.132812 169 " clip-rule="nonzero"/></clipPath><clipPath id="c10874a240"><path d="M 0.132812 168 L 222.867188 168 L 222.867188 217.503906 L 0.132812 217.503906 Z M 0.132812 168 " clip-rule="nonzero"/></clipPath><clipPath id="56c0ce5ac2"><path d="M 0.132812 167 L 222.867188 167 L 222.867188 187 L 0.132812 187 Z M 0.132812 167 " clip-rule="nonzero"/></clipPath><clipPath id="f4c413e8a3"><path d="M 0.132812 182 L 222.867188 182 L 222.867188 217.503906 L 0.132812 217.503906 Z M 0.132812 182 " clip-rule="nonzero"/></clipPath><clipPath id="15aac41841"><path d="M 0.132812 181 L 222.867188 181 L 222.867188 191 L 0.132812 191 Z M 0.132812 181 " clip-rule="nonzero"/></clipPath><clipPath id="0f68b99fdf"><path d="M 0.132812 183 L 222.867188 183 L 222.867188 217.503906 L 0.132812 217.503906 Z M 0.132812 183 " clip-rule="nonzero"/></clipPath><clipPath id="d86efd0019"><path d="M 0.132812 216 L 222.867188 216 L 222.867188 217.503906 L 0.132812 217.503906 Z M 0.132812 216 " clip-rule="nonzero"/></clipPath><clipPath id="4ad6fad9f7"><path d="M 0.132812 182 L 222.867188 182 L 222.867188 200 L 0.132812 200 Z M 0.132812 182 " clip-rule="nonzero"/></clipPath><clipPath id="aa67587410"><path d="M 0.132812 190 L 222.867188 190 L 222.867188 217.503906 L 0.132812 217.503906 Z M 0.132812 190 " clip-rule="nonzero"/></clipPath><clipPath id="456b90d66f"><path d="M 0.132812 189 L 222.867188 189 L 222.867188 205 L 0.132812 205 Z M 0.132812 189 " clip-rule="nonzero"/></clipPath><clipPath id="9640c15d6d"><path d="M 0.132812 214 L 33 214 L 33 217.503906 L 0.132812 217.503906 Z M 0.132812 214 " clip-rule="nonzero"/></clipPath><clipPath id="6f9afa7158"><path d="M 42 216 L 203 216 L 203 217.503906 L 42 217.503906 Z M 42 216 " clip-rule="nonzero"/></clipPath><clipPath id="66d8d059b9"><path d="M 0.132812 213 L 205 213 L 205 217.503906 L 0.132812 217.503906 Z M 0.132812 213 " clip-rule="nonzero"/></clipPath><clipPath id="a1a955239b"><path d="M 0.132812 194 L 222.867188 194 L 222.867188 217.503906 L 0.132812 217.503906 Z M 0.132812 194 " clip-rule="nonzero"/></clipPath><clipPath id="3773216485"><path d="M 0.132812 194 L 222.867188 194 L 222.867188 212 L 0.132812 212 Z M 0.132812 194 " clip-rule="nonzero"/></clipPath><clipPath id="dd247f78e2"><path d="M 0.132812 197 L 222.867188 197 L 222.867188 217.503906 L 0.132812 217.503906 Z M 0.132812 197 " clip-rule="nonzero"/></clipPath><clipPath id="36194fc5ea"><path d="M 0.132812 196 L 222.867188 196 L 222.867188 217.503906 L 0.132812 217.503906 Z M 0.132812 196 " clip-rule="nonzero"/></clipPath><clipPath id="aaa7cfe126"><path d="M 0.132812 200 L 222.867188 200 L 222.867188 217.503906 L 0.132812 217.503906 Z M 0.132812 200 " clip-rule="nonzero"/></clipPath><clipPath id="65c7eee3f2"><path d="M 0.132812 199 L 222.867188 199 L 222.867188 217.503906 L 0.132812 217.503906 Z M 0.132812 199 " clip-rule="nonzero"/></clipPath><clipPath id="7945d174f4"><path d="M 0.132812 198 L 222.867188 198 L 222.867188 217.503906 L 0.132812 217.503906 Z M 0.132812 198 " clip-rule="nonzero"/></clipPath><clipPath id="4ab226ce7f"><path d="M 0.132812 197 L 222.867188 197 L 222.867188 217.503906 L 0.132812 217.503906 Z M 0.132812 197 " clip-rule="nonzero"/></clipPath><clipPath id="0f38d6db63"><path d="M 176.730469 151.640625 L 205.902344 151.640625 L 205.902344 177.167969 L 176.730469 177.167969 Z M 176.730469 151.640625 " clip-rule="nonzero"/></clipPath><clipPath id="91e791b5f8"><path d="M 191.316406 151.640625 L 205.902344 177.167969 L 176.730469 177.167969 L 191.316406 151.640625 " clip-rule="nonzero"/></clipPath></defs><g clip-path="url(#dc37e78daf)"><path fill="#ffffff" d="M 0.132812 0 L 223.367188 0 L 223.367188 217.988281 L 0.132812 217.988281 Z M 0.132812 0 " fill-opacity="1" fill-rule="nonzero"/><path fill="#ffffff" d="M 0.132812 0 L 223.367188 0 L 223.367188 217.988281 L 0.132812 217.988281 Z M 0.132812 0 " fill-opacity="1" fill-rule="nonzero"/></g><g clip-path="url(#e120e5f2e8)"><path fill="#000000" d="M -16.863281 159.222656 C -15.789062 158.113281 -13.222656 156.292969 -11.824219 155.652344 C -10.867188 155.210938 -9.695312 154.90625 -8.960938 154.90625 C -8.070312 154.90625 -7.65625 155.164062 -6.34375 156.511719 C -5.363281 157.519531 -5.058594 157.761719 -4.464844 158.039062 C -3.816406 158.339844 -3.664062 158.375 -2.542969 158.40625 C -0.746094 158.46875 -0.339844 158.324219 2.597656 156.609375 C 4.480469 155.507812 6.226562 154.65625 7.023438 154.453125 C 8.019531 154.199219 9.070312 154.152344 9.699219 154.339844 C 10.003906 154.425781 10.792969 154.820312 11.460938 155.207031 C 12.125 155.597656 12.953125 156.003906 13.304688 156.117188 C 14.316406 156.425781 15.632812 156.546875 17.355469 156.480469 C 19.179688 156.410156 19.828125 156.273438 22.445312 155.410156 C 23.445312 155.078125 24.671875 154.714844 25.167969 154.597656 C 26.320312 154.324219 27.820312 154.296875 28.378906 154.539062 C 28.601562 154.632812 29.285156 155.207031 29.941406 155.847656 C 31.78125 157.636719 32.378906 157.914062 34.558594 158 C 36.351562 158.070312 37.390625 157.925781 40.441406 157.164062 C 43.703125 156.355469 43.945312 156.316406 45.453125 156.316406 C 46.964844 156.316406 47.261719 156.40625 49.007812 157.410156 C 50.851562 158.464844 51.171875 158.550781 53.542969 158.601562 C 55.25 158.640625 55.648438 158.617188 56.523438 158.4375 C 57.96875 158.140625 59.402344 157.683594 62.332031 156.582031 C 65.976562 155.210938 66.546875 155.066406 68.363281 155.0625 L 69.828125 155.054688 L 71.09375 155.675781 C 73.191406 156.707031 74.359375 156.910156 78.621094 156.988281 C 81.753906 157.042969 82.484375 156.988281 84.945312 156.503906 C 86.804688 156.136719 88.183594 155.757812 90.117188 155.09375 C 94.167969 153.691406 95.039062 153.484375 96.839844 153.472656 C 98.300781 153.46875 98.546875 153.550781 100.394531 154.632812 C 102.605469 155.933594 103.289062 156.109375 106.128906 156.109375 C 108.863281 156.109375 110.085938 155.902344 115.457031 154.515625 C 118.425781 153.75 119.628906 153.5625 121.234375 153.617188 C 122.617188 153.660156 123.015625 153.800781 124.320312 154.679688 C 125.882812 155.726562 126.773438 156.046875 128.644531 156.21875 C 130.851562 156.425781 132.667969 156.191406 137.359375 155.105469 C 141.34375 154.183594 142.546875 154 144.550781 154 C 146.183594 154 146.699219 154.105469 148.523438 154.816406 C 150.308594 155.507812 151.34375 155.785156 152.675781 155.921875 C 154.113281 156.070312 158.160156 155.976562 159.585938 155.757812 C 160.730469 155.585938 164.75 154.796875 168.308594 154.046875 C 170.128906 153.664062 170.777344 153.570312 171.9375 153.527344 C 173.726562 153.464844 174.128906 153.582031 175.824219 154.652344 C 178.273438 156.203125 179.097656 156.457031 181.613281 156.449219 C 183.789062 156.441406 184.5 156.296875 187.914062 155.15625 C 191.632812 153.914062 192.132812 153.792969 193.8125 153.726562 C 195.5625 153.660156 196.011719 153.789062 197.617188 154.820312 C 199.574219 156.074219 200.167969 156.25 202.53125 156.242188 C 204.914062 156.238281 205.585938 156.101562 210.863281 154.566406 C 215.082031 153.339844 217.527344 153.125 219.011719 153.847656 C 219.289062 153.980469 219.921875 154.414062 220.417969 154.808594 C 221.960938 156.03125 222.445312 156.195312 224.753906 156.277344 C 226.496094 156.339844 228.378906 156.148438 228.964844 155.84375 C 229.128906 155.761719 229.289062 155.722656 229.324219 155.757812 C 229.582031 156.011719 227.832031 156.960938 226.824219 157.113281 C 225.882812 157.257812 223.480469 157.234375 222.570312 157.070312 C 221.511719 156.882812 220.886719 156.574219 219.820312 155.714844 C 219.316406 155.3125 218.683594 154.863281 218.40625 154.714844 C 217.921875 154.460938 217.839844 154.449219 216.289062 154.453125 C 214.433594 154.453125 213.519531 154.613281 210.914062 155.371094 C 205.132812 157.058594 204.738281 157.140625 202.230469 157.152344 C 199.675781 157.167969 198.867188 156.9375 197 155.683594 C 196.589844 155.40625 196 155.0625 195.6875 154.917969 C 195.152344 154.664062 195.035156 154.652344 193.65625 154.65625 C 191.910156 154.664062 191.652344 154.722656 187.8125 156.003906 C 184.101562 157.242188 183.492188 157.367188 181.160156 157.367188 C 179.535156 157.367188 179.195312 157.332031 178.507812 157.136719 C 177.554688 156.863281 176.636719 156.414062 175.113281 155.464844 C 173.472656 154.441406 173.492188 154.449219 171.785156 154.460938 C 170.570312 154.46875 170.070312 154.523438 168.8125 154.78125 C 167.980469 154.953125 165.960938 155.367188 164.328125 155.707031 C 158.871094 156.832031 158.691406 156.851562 155.050781 156.859375 C 151.015625 156.867188 151.238281 156.90625 147.136719 155.375 L 146.027344 154.957031 L 144.066406 154.957031 C 141.816406 154.957031 141.054688 155.066406 137.417969 155.917969 C 132.417969 157.085938 130.433594 157.347656 128.222656 157.132812 C 126.273438 156.945312 125.460938 156.652344 123.605469 155.46875 C 122.292969 154.636719 121.859375 154.5 120.46875 154.5 C 119.03125 154.5 117.527344 154.769531 114.53125 155.554688 C 109.921875 156.769531 108.4375 157.015625 105.730469 157.015625 C 102.882812 157.015625 101.996094 156.785156 99.765625 155.460938 C 97.984375 154.410156 97.863281 154.371094 96.4375 154.375 C 94.8125 154.382812 94.171875 154.53125 90.488281 155.757812 C 87.496094 156.757812 85.628906 157.246094 83.128906 157.691406 C 82.296875 157.839844 81.558594 157.871094 78.847656 157.863281 C 74.128906 157.859375 72.863281 157.65625 70.621094 156.554688 C 69.375 155.941406 68.667969 155.777344 67.65625 155.867188 C 66.160156 156 65.289062 156.25 61.910156 157.519531 C 59.335938 158.488281 57.929688 158.941406 56.566406 159.246094 C 55.636719 159.449219 55.253906 159.480469 53.394531 159.472656 C 51.375 159.46875 51.238281 159.457031 50.472656 159.199219 C 50.027344 159.054688 49.234375 158.679688 48.707031 158.375 C 46.929688 157.332031 46.578125 157.195312 45.53125 157.140625 C 44.300781 157.074219 43.363281 157.21875 40.707031 157.882812 C 37.777344 158.613281 37.316406 158.703125 35.953125 158.832031 C 34.554688 158.960938 32.875 158.832031 32.011719 158.527344 C 31.132812 158.21875 30.417969 157.699219 29.292969 156.550781 C 28.714844 155.964844 28.117188 155.445312 27.910156 155.359375 C 27.675781 155.261719 27.222656 155.207031 26.660156 155.207031 C 25.578125 155.207031 24.417969 155.476562 22.09375 156.265625 C 19.617188 157.109375 19.027344 157.222656 16.851562 157.285156 C 13.9375 157.371094 12.945312 157.144531 10.882812 155.921875 C 9.476562 155.089844 9.246094 155.007812 8.386719 155.007812 C 6.988281 155.007812 5.75 155.492188 2.847656 157.1875 C 0.101562 158.792969 -0.675781 159.109375 -2.054688 159.195312 C -3.207031 159.269531 -4.175781 159.109375 -5.019531 158.707031 C -5.542969 158.460938 -5.917969 158.148438 -6.886719 157.164062 C -7.550781 156.492188 -8.1875 155.890625 -8.296875 155.835938 C -9.324219 155.3125 -11.550781 155.964844 -13.660156 157.402344 C -14.148438 157.738281 -14.941406 158.324219 -15.414062 158.710938 C -16.160156 159.3125 -16.757812 159.628906 -17.164062 159.628906 C -17.214844 159.628906 -17.082031 159.445312 -16.863281 159.21875 Z M 181.414062 156.015625 C 181.378906 155.957031 181.382812 155.855469 181.425781 155.785156 C 181.871094 155.054688 185.84375 149.746094 188.214844 146.710938 C 190.628906 143.625 191.324219 142.703125 192.371094 141.230469 C 193.453125 139.699219 194.566406 137.96875 194.566406 137.8125 C 194.566406 137.746094 182.65625 137.710938 156.949219 137.710938 L 119.328125 137.710938 L 119.046875 137.4375 C 118.890625 137.292969 118.761719 137.132812 118.761719 137.089844 C 118.761719 137.046875 135.929688 137.007812 156.910156 137.007812 C 182.234375 137.007812 195.078125 136.976562 195.121094 136.90625 C 195.234375 136.726562 195.46875 136.800781 195.527344 137.035156 C 195.601562 137.335938 194.972656 138.480469 193.613281 140.527344 C 192.472656 142.238281 191.273438 143.851562 188.421875 147.515625 C 187.390625 148.84375 185.65625 151.105469 184.566406 152.546875 C 181.953125 156.007812 181.628906 156.363281 181.414062 156.015625 Z M 19.539062 155.6875 C 19.324219 154.496094 18.492188 147.578125 17.707031 140.4375 C 17.449219 138.089844 17.386719 137.242188 17.472656 137.144531 C 17.5625 137.027344 25.425781 137.011719 65 137.03125 L 112.421875 137.058594 L 112.628906 137.386719 L 112.835938 137.710938 L 65.558594 137.710938 C 20.585938 137.710938 18.285156 137.71875 18.324219 137.886719 C 18.34375 137.984375 18.753906 141.367188 19.226562 145.402344 C 19.699219 149.441406 20.175781 153.378906 20.285156 154.152344 C 20.394531 154.921875 20.484375 155.589844 20.484375 155.640625 C 20.484375 155.722656 19.863281 156.015625 19.6875 156.015625 C 19.636719 156.015625 19.570312 155.863281 19.539062 155.6875 Z M 128.066406 154.785156 C 126.28125 152.679688 123.390625 149.335938 120.78125 146.359375 C 115.246094 140.054688 112.566406 136.886719 104.511719 127.152344 C 100.496094 122.296875 99.1875 120.765625 95.992188 117.1875 C 95.527344 116.667969 95.019531 116.097656 94.863281 115.925781 C 94.613281 115.640625 94.527344 115.609375 93.976562 115.601562 C 93.230469 115.589844 92.78125 115.414062 92.425781 114.992188 C 92.199219 114.726562 92.152344 114.570312 92.152344 114.109375 C 92.152344 113.804688 92.203125 113.378906 92.265625 113.175781 C 92.371094 112.8125 92.355469 112.769531 91.882812 112.058594 C 91.128906 110.933594 91.089844 110.828125 91.246094 110.453125 C 91.449219 109.96875 92.214844 109.296875 93.011719 108.902344 C 93.410156 108.710938 93.804688 108.550781 93.894531 108.550781 C 93.980469 108.550781 94.316406 108.886719 94.636719 109.300781 L 95.214844 110.050781 L 96.027344 110.027344 L 96.839844 110.007812 L 98.25 110.972656 C 101.949219 113.507812 106.113281 115.460938 111.859375 117.351562 C 116.257812 118.800781 117.859375 119.289062 117.859375 119.1875 C 117.859375 119.128906 117.511719 118.035156 117.085938 116.757812 C 115.726562 112.652344 114.585938 110.03125 112.695312 106.664062 C 112.25 105.875 111.875 105.230469 111.851562 105.230469 C 111.832031 105.230469 111.882812 105.445312 111.96875 105.707031 C 112.367188 106.980469 112.949219 109.074219 113.355469 110.710938 C 113.992188 113.234375 114.757812 117.507812 114.605469 117.65625 C 114.574219 117.6875 114.378906 117.628906 114.164062 117.527344 C 113.835938 117.375 113.761719 117.285156 113.703125 116.945312 C 113.664062 116.726562 113.488281 115.75 113.316406 114.78125 C 112.960938 112.800781 112.242188 109.785156 111.554688 107.398438 C 111.101562 105.820312 110.910156 105.308594 110.902344 105.632812 C 110.902344 105.714844 110.808594 106.507812 110.691406 107.394531 C 110.347656 110.082031 109.929688 111.980469 109.128906 114.554688 C 108.757812 115.734375 108.648438 115.859375 108.25 115.5625 C 108.09375 115.445312 108.109375 115.339844 108.480469 114.128906 C 109.253906 111.617188 109.863281 108.296875 110.199219 104.761719 L 110.3125 103.53125 L 109.675781 101.617188 C 109.285156 100.429688 108.992188 99.714844 108.925781 99.738281 C 108.863281 99.765625 108.316406 99.859375 107.710938 99.957031 C 106.414062 100.160156 104.132812 100.113281 102.703125 99.859375 C 97.820312 98.976562 92.941406 95.417969 91.382812 91.601562 C 90.660156 89.84375 90.597656 89.457031 90.59375 86.726562 C 90.589844 83.9375 90.695312 83.109375 91.304688 81.296875 C 92.144531 78.792969 93.246094 76.90625 94.816406 75.28125 C 96.128906 73.917969 97.4375 73.128906 99.4375 72.488281 C 99.921875 72.332031 100.316406 72.175781 100.316406 72.136719 C 100.316406 72.023438 99.394531 71.671875 98.757812 71.539062 C 97.273438 71.238281 94.980469 71.902344 93.683594 73.007812 C 93.238281 73.390625 93.058594 73.4375 93.058594 73.179688 C 93.058594 72.851562 94.105469 71.984375 95.085938 71.503906 C 96.402344 70.859375 97.082031 70.707031 98.394531 70.761719 C 99.597656 70.8125 100.40625 71.0625 100.972656 71.554688 L 101.304688 71.847656 L 101.84375 71.648438 C 102.695312 71.335938 104.019531 71.050781 104.976562 70.976562 C 105.460938 70.941406 105.859375 70.867188 105.859375 70.816406 C 105.859375 70.761719 105.589844 70.453125 105.261719 70.132812 C 104.59375 69.480469 103.394531 68.832031 102.386719 68.578125 C 101.488281 68.347656 100.269531 68.375 99.855469 68.632812 C 99.65625 68.753906 99.503906 68.792969 99.464844 68.734375 C 99.429688 68.679688 99.59375 68.511719 99.835938 68.359375 C 101.203125 67.492188 102.355469 67.5 104.214844 68.386719 C 105.644531 69.0625 106.761719 70.207031 106.601562 70.820312 C 106.546875 71.027344 106.574219 71.042969 107.101562 71.042969 C 109.609375 71.042969 113.375 72.8125 115.863281 75.160156 C 118.324219 77.480469 119.832031 80.429688 120.386719 84.015625 C 120.535156 84.976562 120.453125 87.222656 120.230469 88.289062 C 119.589844 91.332031 117.597656 94.664062 115.277344 96.597656 C 113.871094 97.765625 112.074219 98.773438 110.476562 99.292969 L 109.800781 99.515625 L 110.058594 100.183594 C 110.199219 100.554688 110.394531 101.089844 110.5 101.375 C 110.75 102.085938 110.835938 102.234375 111.570312 103.191406 C 112.964844 105.015625 115.214844 109.152344 116.382812 112.035156 C 117.359375 114.453125 119.089844 119.777344 118.972656 120 C 118.917969 120.097656 118.695312 120.230469 118.472656 120.296875 C 118.089844 120.414062 117.910156 120.367188 114.414062 119.253906 C 108.855469 117.476562 105.765625 116.296875 102.808594 114.820312 C 101.199219 114.015625 99.054688 112.746094 98.253906 112.128906 C 97.589844 111.613281 97.515625 111.632812 97.5 112.351562 C 97.496094 112.632812 97.613281 112.824219 98.183594 113.460938 C 99.109375 114.503906 103.488281 119.515625 104.5625 120.765625 C 105.714844 122.117188 109.363281 126.539062 111.355469 129.007812 C 114.203125 132.535156 115.242188 133.796875 117.011719 135.863281 C 117.96875 136.976562 118.808594 137.949219 118.882812 138.023438 C 118.957031 138.101562 119.765625 139 120.679688 140.023438 C 121.589844 141.046875 122.359375 141.90625 122.394531 141.933594 C 122.425781 141.964844 122.949219 142.550781 123.558594 143.242188 C 124.167969 143.933594 125.148438 145.042969 125.734375 145.707031 C 127.761719 148 130.558594 151.410156 132.074219 153.429688 L 133.597656 155.460938 L 133.164062 155.492188 C 132.640625 155.53125 132.558594 155.453125 131.191406 153.558594 C 129.917969 151.789062 125.101562 146.125 121.183594 141.785156 C 117.570312 137.785156 115.050781 134.824219 111.453125 130.371094 C 107.410156 125.355469 102.828125 119.886719 100.46875 117.246094 C 100.074219 116.804688 99.175781 115.777344 98.476562 114.964844 L 97.203125 113.484375 L 96.980469 113.855469 C 96.6875 114.347656 96.324219 114.742188 95.855469 115.085938 L 95.476562 115.367188 L 97.257812 117.363281 C 99.675781 120.066406 101.535156 122.238281 104.347656 125.644531 C 106.5 128.246094 108.570312 130.738281 111.953125 134.792969 C 114.691406 138.074219 118.460938 142.4375 125.25 150.179688 C 125.855469 150.871094 127.121094 152.359375 128.070312 153.484375 C 129.875 155.636719 129.910156 155.707031 129.175781 155.707031 C 128.886719 155.707031 128.753906 155.601562 128.066406 154.785156 Z M 95.355469 114.589844 C 96.109375 114.207031 96.507812 113.511719 96.703125 112.234375 C 96.839844 111.355469 96.753906 111.019531 96.332031 110.859375 C 95.90625 110.699219 95.296875 110.746094 94.847656 110.976562 C 94.292969 111.257812 93.472656 112.109375 93.171875 112.710938 C 92.875 113.308594 92.851562 114.09375 93.117188 114.386719 C 93.492188 114.800781 94.726562 114.914062 95.355469 114.589844 Z M 93.421875 111.382812 C 93.75 111.0625 94.152344 110.707031 94.3125 110.589844 C 94.597656 110.390625 94.605469 110.371094 94.449219 110.144531 C 94.359375 110.011719 94.15625 109.757812 94 109.582031 L 93.714844 109.253906 L 93.097656 109.566406 C 92.753906 109.734375 92.332031 110.023438 92.152344 110.207031 C 91.84375 110.523438 91.835938 110.546875 91.984375 110.824219 C 92.144531 111.132812 92.734375 111.96875 92.789062 111.96875 C 92.808594 111.96875 93.09375 111.703125 93.421875 111.382812 Z M 108.683594 98.953125 C 108.988281 98.863281 109.382812 98.765625 109.566406 98.738281 C 110.125 98.65625 111.625 98.09375 112.484375 97.636719 C 113.789062 96.953125 114.410156 96.503906 115.472656 95.480469 C 117.4375 93.585938 119.011719 90.691406 119.398438 88.261719 C 119.464844 87.832031 119.519531 86.734375 119.519531 85.824219 C 119.519531 84.054688 119.386719 83.292969 118.78125 81.5 C 117.472656 77.601562 114.476562 74.523438 110.195312 72.679688 C 108.785156 72.070312 107.363281 71.820312 105.324219 71.820312 C 103.777344 71.820312 102.214844 72 101.601562 72.242188 C 101.40625 72.324219 101.425781 72.335938 101.757812 72.34375 C 102.113281 72.347656 102.359375 72.558594 102.195312 72.71875 C 102.160156 72.753906 101.648438 72.820312 101.046875 72.867188 C 100.453125 72.917969 99.714844 73.027344 99.410156 73.113281 C 96.617188 73.910156 94.394531 75.980469 92.859375 79.210938 C 92.367188 80.246094 91.816406 81.816406 91.6875 82.542969 L 91.621094 82.933594 L 92.148438 82.515625 C 92.609375 82.152344 93.058594 81.980469 93.058594 82.164062 C 93.058594 82.199219 92.683594 82.609375 92.226562 83.074219 L 91.394531 83.929688 L 91.398438 86.304688 C 91.398438 88.464844 91.417969 88.765625 91.628906 89.542969 C 91.917969 90.613281 92.789062 92.40625 93.445312 93.265625 C 94.050781 94.0625 95.441406 95.402344 96.132812 95.863281 C 96.613281 96.183594 96.671875 96.199219 97.324219 96.144531 C 98.523438 96.046875 100.371094 95.015625 101.761719 93.65625 C 102.511719 92.925781 102.550781 92.867188 102.519531 92.496094 C 102.484375 92.128906 102.5 92.105469 102.792969 92.078125 C 103.613281 91.996094 103.464844 92.816406 102.464844 93.871094 C 101.414062 94.980469 99.613281 96.1875 98.328125 96.644531 C 98.035156 96.746094 97.808594 96.878906 97.828125 96.933594 C 97.875 97.078125 99.785156 98.019531 100.648438 98.320312 C 102.632812 99.019531 103.816406 99.195312 106.214844 99.15625 C 107.628906 99.128906 108.273438 99.074219 108.679688 98.953125 Z M 92.578125 89.210938 C 92.457031 89.089844 92.289062 88.785156 92.207031 88.546875 C 92.027344 88.039062 92.003906 86.757812 92.164062 86.183594 C 92.300781 85.691406 92.753906 85.21875 93.09375 85.21875 C 93.402344 85.21875 93.878906 85.605469 94.183594 86.101562 C 94.648438 86.851562 94.394531 88.644531 93.75 89.1875 C 93.359375 89.515625 92.871094 89.527344 92.578125 89.210938 Z M 95.835938 88.097656 C 95.484375 87.746094 95.34375 87.109375 95.421875 86.238281 C 95.542969 84.898438 95.953125 84.113281 96.53125 84.113281 C 96.996094 84.113281 97.621094 85.125 97.75 86.078125 C 97.867188 86.976562 97.480469 87.828125 96.78125 88.1875 C 96.375 88.398438 96.113281 88.371094 95.835938 88.097656 Z M 99.054688 82.433594 C 98.945312 82.410156 98.566406 82.300781 98.214844 82.195312 C 97.859375 82.085938 97.308594 82 96.988281 82 C 96.273438 82 96.082031 81.933594 96.082031 81.691406 C 96.082031 81.433594 96.421875 81.367188 97.472656 81.417969 C 98.441406 81.46875 99.054688 81.703125 99.339844 82.136719 C 99.484375 82.355469 99.472656 82.523438 99.316406 82.492188 C 99.285156 82.484375 99.167969 82.460938 99.054688 82.433594 Z M 118.15625 149.433594 C 118.15625 149.261719 117.496094 148.152344 117.042969 147.566406 C 116.890625 147.371094 116.335938 146.484375 115.808594 145.59375 C 115.277344 144.703125 114.457031 143.457031 113.984375 142.828125 C 113.164062 141.742188 112.921875 141.265625 113.066406 141.03125 C 113.179688 140.851562 113.300781 140.921875 113.53125 141.304688 C 113.660156 141.511719 113.996094 141.976562 114.285156 142.335938 C 115.25 143.558594 116.75 145.996094 117.375 147.367188 C 117.511719 147.667969 117.8125 148.210938 118.046875 148.566406 C 118.277344 148.921875 118.453125 149.28125 118.441406 149.363281 C 118.398438 149.570312 118.15625 149.628906 118.15625 149.433594 Z M 128.820312 146.472656 C 128.292969 145.535156 125.285156 142 123.957031 140.757812 C 123.394531 140.226562 123.28125 139.988281 123.546875 139.886719 C 124 139.714844 127.398438 143.300781 128.117188 144.707031 C 128.230469 144.933594 128.554688 145.496094 128.832031 145.957031 C 129.289062 146.714844 129.371094 146.960938 129.164062 146.960938 C 129.128906 146.960938 128.972656 146.742188 128.820312 146.472656 Z M 10.066406 138.839844 C 9.773438 137.003906 9.863281 136.160156 10.558594 134.074219 C 10.941406 132.933594 11.585938 131.746094 11.851562 131.695312 C 12.074219 131.648438 12.054688 131.800781 11.761719 132.382812 C 11.355469 133.183594 11.109375 133.867188 10.804688 135.050781 C 10.472656 136.332031 10.253906 138.445312 10.375 139.117188 C 10.464844 139.59375 10.4375 139.921875 10.3125 139.921875 C 10.269531 139.921875 10.164062 139.4375 10.066406 138.839844 Z M 13.039062 139.367188 C 12.402344 138.675781 12.328125 138.34375 12.546875 137.28125 C 12.816406 135.976562 13.75 134.339844 14.523438 133.816406 C 15.066406 133.453125 15.078125 133.660156 14.546875 134.273438 C 13.527344 135.445312 13.023438 136.710938 13.023438 138.082031 C 13.023438 138.894531 13.03125 138.925781 13.375 139.304688 C 13.71875 139.6875 13.820312 139.921875 13.636719 139.921875 C 13.589844 139.921875 13.316406 139.671875 13.039062 139.367188 Z M 82.664062 136.628906 C 82.71875 136.53125 83.632812 135.34375 84.699219 133.988281 C 86.40625 131.816406 89.160156 128.222656 90.265625 126.71875 C 90.5625 126.3125 90.726562 126.183594 90.996094 126.136719 C 91.265625 126.089844 91.320312 126.109375 91.242188 126.203125 C 91.164062 126.296875 91.3125 126.421875 91.820312 126.703125 C 92.199219 126.910156 93.457031 127.597656 94.621094 128.234375 C 95.785156 128.871094 97.621094 129.898438 98.703125 130.515625 C 99.785156 131.136719 101.738281 132.226562 103.039062 132.929688 C 106.703125 134.917969 109.605469 136.628906 109.496094 136.738281 C 109.445312 136.789062 109.140625 136.808594 108.816406 136.789062 C 108.285156 136.746094 108.03125 136.628906 106.214844 135.582031 C 105.105469 134.945312 103.496094 134.046875 102.636719 133.589844 C 101.773438 133.128906 100.324219 132.324219 99.410156 131.796875 C 98.496094 131.277344 96.503906 130.148438 94.984375 129.296875 C 93.460938 128.441406 91.90625 127.542969 91.523438 127.296875 C 91.144531 127.050781 90.800781 126.851562 90.761719 126.851562 C 90.683594 126.851562 90.640625 126.910156 89.539062 128.523438 C 88.667969 129.800781 88.242188 130.363281 85.621094 133.738281 C 83.101562 136.984375 83.261719 136.804688 82.882812 136.804688 C 82.613281 136.804688 82.582031 136.78125 82.664062 136.628906 Z M 105.132812 136.023438 C 104.613281 135.59375 103.816406 134.953125 103.359375 134.601562 C 102.902344 134.25 102.542969 133.949219 102.554688 133.933594 C 102.570312 133.917969 103.417969 134.324219 104.441406 134.835938 C 105.808594 135.519531 106.445312 135.898438 106.859375 136.277344 L 107.421875 136.796875 L 106.75 136.804688 L 106.074219 136.808594 L 105.132812 136.03125 Z M 86.105469 136.652344 C 86.105469 136.507812 86.839844 135.175781 87.769531 133.640625 C 90.75 128.707031 91.367188 127.703125 91.4375 127.679688 C 91.476562 127.664062 91.59375 127.738281 91.691406 127.851562 C 91.90625 128.085938 92.039062 127.839844 89.375 132.230469 C 88.371094 133.890625 87.371094 135.574219 87.15625 135.976562 C 86.789062 136.648438 86.734375 136.703125 86.433594 136.703125 C 86.25 136.703125 86.105469 136.683594 86.105469 136.652344 Z M 118.101562 136.316406 C 117.613281 135.957031 117.214844 135.539062 116.558594 134.695312 C 115.894531 133.839844 116.109375 133.78125 117.027344 134.5625 C 117.40625 134.882812 117.949219 135.328125 118.238281 135.550781 C 118.804688 135.988281 118.949219 136.234375 118.757812 136.460938 C 118.59375 136.65625 118.550781 136.648438 118.101562 136.316406 Z M 114.820312 132.402344 L 114.558594 132.03125 L 114.441406 127.355469 C 114.375 124.78125 114.257812 122 114.183594 121.167969 C 114.105469 120.339844 114.054688 119.648438 114.066406 119.632812 C 114.117188 119.582031 114.820312 119.910156 114.882812 120.015625 C 115.242188 120.59375 115.496094 132.792969 115.148438 132.78125 C 115.113281 132.78125 114.964844 132.609375 114.820312 132.402344 Z M 106.515625 131.054688 C 106.242188 130.890625 104.675781 129.652344 103.035156 128.308594 C 101.390625 126.960938 99.230469 125.238281 98.230469 124.472656 C 96.257812 122.964844 93.414062 120.703125 92.050781 119.558594 C 91.285156 118.914062 91.136719 118.832031 90.65625 118.777344 C 90.363281 118.742188 89.96875 118.621094 89.785156 118.503906 C 89.445312 118.296875 89.128906 117.703125 89.125 117.273438 C 89.125 117.105469 88.894531 116.878906 88.277344 116.417969 C 87.8125 116.074219 87.359375 115.789062 87.273438 115.789062 C 87.1875 115.789062 87.085938 115.664062 87.046875 115.515625 C 86.914062 114.980469 88.089844 113.203125 88.832031 112.816406 C 89.285156 112.585938 89.445312 112.636719 90.167969 113.238281 C 90.800781 113.761719 90.863281 113.789062 91.027344 113.640625 C 91.125 113.550781 91.316406 113.46875 91.453125 113.453125 C 91.867188 113.410156 91.757812 113.769531 91.25 114.125 C 90.742188 114.484375 90.191406 115.234375 90.039062 115.769531 C 89.984375 115.972656 89.933594 116.425781 89.933594 116.777344 C 89.933594 117.714844 90.257812 117.988281 91.296875 117.90625 C 91.800781 117.871094 92.335938 117.476562 92.941406 116.691406 C 93.613281 115.820312 93.929688 115.660156 93.835938 116.230469 C 93.777344 116.589844 93.796875 116.609375 94.753906 117.429688 C 95.292969 117.890625 95.957031 118.4375 96.234375 118.648438 C 97.972656 119.964844 99.078125 120.953125 99.449219 121.527344 C 99.660156 121.859375 99.816406 122.152344 99.789062 122.179688 C 99.691406 122.28125 98.09375 121.007812 95.023438 118.378906 C 94.203125 117.671875 93.503906 117.097656 93.46875 117.097656 C 93.4375 117.097656 93.308594 117.253906 93.175781 117.441406 C 92.925781 117.808594 92.492188 118.171875 92.015625 118.421875 L 91.730469 118.570312 L 92.621094 119.273438 C 94.183594 120.503906 96.15625 122.039062 97.679688 123.203125 C 100.25 125.175781 101.585938 126.226562 103.359375 127.671875 C 105.898438 129.738281 105.976562 129.808594 106.570312 130.527344 C 107.371094 131.488281 107.363281 131.570312 106.515625 131.054688 Z M 89.378906 115.785156 C 89.414062 115.621094 89.632812 115.207031 89.859375 114.871094 L 90.269531 114.257812 L 89.875 113.914062 C 89.292969 113.410156 89.046875 113.25 88.941406 113.316406 C 88.886719 113.351562 88.582031 113.769531 88.253906 114.246094 C 87.710938 115.046875 87.679688 115.117188 87.851562 115.222656 C 87.957031 115.285156 88.292969 115.527344 88.605469 115.753906 C 88.917969 115.988281 89.203125 116.15625 89.242188 116.128906 C 89.28125 116.109375 89.34375 115.953125 89.378906 115.785156 Z M 98.292969 130.039062 C 96.230469 128.953125 96.070312 128.839844 94.273438 127.109375 L 92.917969 125.804688 L 92.734375 126.226562 C 92.53125 126.6875 92.445312 126.734375 92.25 126.496094 C 92.148438 126.371094 92.152344 126.273438 92.28125 125.96875 C 92.367188 125.761719 92.460938 125.511719 92.492188 125.414062 C 92.527344 125.320312 92.613281 125.214844 92.695312 125.183594 C 92.957031 125.082031 93.804688 125.613281 94.71875 126.449219 C 95.214844 126.902344 96.605469 128.054688 97.808594 129.015625 C 99.707031 130.53125 100.230469 130.976562 100.09375 130.972656 C 100.078125 130.972656 99.265625 130.550781 98.292969 130.039062 Z M 119.570312 122.195312 C 119.570312 122.121094 119.6875 121.949219 119.832031 121.816406 C 120.164062 121.5 120.878906 120.359375 121.300781 119.460938 C 121.570312 118.878906 121.632812 118.605469 121.667969 117.871094 C 121.703125 117.132812 121.683594 116.957031 121.535156 116.792969 C 121.390625 116.632812 121.378906 116.570312 121.484375 116.445312 C 121.667969 116.226562 121.953125 116.257812 122.132812 116.515625 C 122.34375 116.8125 122.34375 117.996094 122.128906 118.710938 C 121.839844 119.695312 121.195312 120.828125 120.351562 121.847656 C 119.972656 122.300781 119.570312 122.480469 119.570312 122.195312 Z M 123.503906 121.851562 C 123.503906 121.808594 123.773438 121.246094 124.109375 120.601562 C 124.859375 119.136719 125.058594 118.421875 124.960938 117.488281 C 124.902344 116.894531 124.914062 116.792969 125.050781 116.792969 C 125.605469 116.792969 125.675781 118.324219 125.171875 119.496094 C 124.683594 120.640625 123.902344 121.921875 123.691406 121.921875 C 123.589844 121.921875 123.503906 121.886719 123.503906 121.851562 Z M 105.089844 119.5625 C 104.417969 119.324219 103.738281 119.054688 103.578125 118.972656 C 103.21875 118.785156 102.273438 117.828125 102.359375 117.742188 C 102.429688 117.671875 103.972656 118.152344 105.726562 118.792969 L 106.855469 119.199219 L 107.175781 118.246094 C 107.503906 117.253906 107.625 117.140625 108.015625 117.425781 C 108.183594 117.546875 108.171875 117.613281 107.835938 118.503906 C 107.640625 119.03125 107.394531 119.570312 107.289062 119.710938 C 106.992188 120.109375 106.507812 120.074219 105.089844 119.5625 Z M 81.464844 117.285156 C 81.464844 117.222656 81.332031 116.894531 81.164062 116.554688 C 80.628906 115.460938 80.546875 114.5625 80.863281 113.316406 C 81.21875 111.921875 82.417969 109.753906 82.832031 109.753906 C 82.914062 109.753906 82.980469 109.785156 82.980469 109.820312 C 82.980469 109.855469 82.746094 110.28125 82.464844 110.773438 C 81.238281 112.890625 80.859375 115.417969 81.566406 116.773438 C 81.777344 117.167969 81.773438 117.398438 81.5625 117.398438 C 81.511719 117.398438 81.464844 117.347656 81.464844 117.285156 Z M 84.898438 117.183594 C 84.648438 117.136719 84.207031 116.980469 83.914062 116.839844 C 83.1875 116.484375 83.039062 116.1875 83.101562 115.171875 C 83.160156 114.179688 83.609375 113.207031 84.441406 112.292969 C 85.328125 111.316406 85.667969 111.535156 84.859375 112.566406 C 84.132812 113.484375 83.859375 114.121094 83.804688 114.992188 C 83.769531 115.609375 83.800781 115.84375 83.960938 116.210938 C 84.136719 116.605469 84.230469 116.691406 84.648438 116.832031 C 84.914062 116.921875 85.214844 116.996094 85.316406 116.996094 C 85.5 116.996094 85.566406 117.148438 85.425781 117.222656 C 85.378906 117.246094 85.144531 117.222656 84.898438 117.183594 Z M 84.898438 117.183594 " fill-opacity="1" fill-rule="nonzero"/></g><g clip-path="url(#773c46d1ac)"><path fill="#446f91" d="M 230.1875 150.828125 C 228.421875 149.414062 225.476562 148.742188 221 148.742188 C 214.621094 148.742188 206.015625 150.085938 196.058594 151.652344 C 183.480469 153.628906 169.226562 155.867188 155.964844 155.867188 C 147.933594 155.867188 141.226562 155.058594 135.457031 153.410156 C 131.75 152.339844 127.921875 151.832031 123.75 151.832031 C 115.554688 151.832031 107.402344 153.878906 99.507812 155.839844 C 91.660156 157.804688 84.25 159.660156 76.851562 159.660156 C 70.847656 159.660156 65.542969 158.394531 60.65625 155.785156 C 51.921875 151.132812 43.894531 148.863281 36.070312 148.863281 C 28.246094 148.863281 22.203125 151.089844 16.859375 153.066406 C 15.4375 153.589844 14.089844 154.082031 12.792969 154.507812 C 7.796875 156.128906 2.863281 156.980469 -1.460938 156.980469 C -8.125 156.980469 -13.457031 155.046875 -17.285156 151.226562 L -17.726562 150.789062 L -17.726562 179.628906 L 230.1875 179.628906 Z M 230.1875 150.828125 " fill-opacity="1" fill-rule="nonzero"/></g><g clip-path="url(#3127b51d08)"><path fill="#ffffff" d="M -17.726562 179.011719 L 230.1875 179.011719 L 230.1875 180.246094 L -17.726562 180.246094 Z M -17.726562 179.011719 " fill-opacity="1" fill-rule="nonzero"/></g><g clip-path="url(#7103b1d7a5)"><path fill="#ffffff" d="M 12.988281 155.101562 C 19.035156 153.148438 26.25 149.496094 36.070312 149.496094 C 42.792969 149.496094 50.738281 151.199219 60.367188 156.335938 C 65.777344 159.21875 71.273438 160.277344 76.851562 160.277344 C 92.03125 160.277344 107.730469 152.4375 123.75 152.4375 C 127.578125 152.4375 131.421875 152.890625 135.289062 153.988281 C 141.558594 155.785156 148.609375 156.472656 155.964844 156.472656 C 179.652344 156.472656 206.566406 149.34375 221 149.34375 C 225.324219 149.34375 228.519531 149.976562 230.1875 151.640625 L 230.1875 150.046875 C 228.285156 148.726562 225.324219 148.109375 221 148.109375 C 214.582031 148.109375 205.945312 149.46875 195.960938 151.035156 C 183.414062 153 169.1875 155.238281 155.964844 155.238281 C 148.003906 155.238281 141.351562 154.441406 135.636719 152.792969 C 131.875 151.707031 127.992188 151.1875 123.75 151.1875 C 115.472656 151.1875 107.277344 153.230469 99.355469 155.222656 C 91.546875 157.171875 84.179688 159.027344 76.851562 159.027344 C 70.945312 159.027344 65.75 157.792969 60.957031 155.222656 C 52.144531 150.527344 44.003906 148.234375 36.085938 148.234375 C 28.152344 148.234375 21.773438 150.582031 16.652344 152.476562 C 15.234375 153 13.898438 153.492188 12.617188 153.90625 C 7.683594 155.5 2.808594 156.351562 -1.460938 156.351562 C -7.960938 156.351562 -13.140625 154.46875 -16.84375 150.773438 L -17.726562 149.910156 L -17.726562 151.667969 C -13.375 156.007812 -7.535156 157.613281 -1.460938 157.613281 C 3.414062 157.597656 8.441406 156.570312 12.988281 155.101562 Z M 12.988281 155.101562 " fill-opacity="1" fill-rule="nonzero"/></g><g clip-path="url(#344a05573f)"><path fill="#002f59" d="M 230.1875 150.789062 C 228.300781 148.917969 225.378906 146.117188 225.351562 146.089844 L 224.566406 145.335938 L 224.320312 146.378906 C 223.4375 150.003906 219.566406 152.09375 216.46875 153.203125 C 212.734375 154.550781 207.804688 155.320312 202.941406 155.320312 C 199.953125 155.320312 197.214844 155.03125 195.230469 154.496094 C 193.867188 154.125 192.53125 153.726562 191.234375 153.34375 C 186.816406 152.023438 182.628906 150.773438 177.503906 150.773438 C 172.726562 150.773438 167.671875 151.914062 162.050781 154.234375 C 147.257812 160.386719 135.179688 163.367188 125.125 163.367188 C 113.820312 163.367188 107.054688 159.550781 101.078125 156.183594 C 98.984375 155.003906 97.003906 153.878906 94.9375 152.984375 C 83.988281 148.246094 72.320312 145.652344 62.074219 145.652344 C 52.035156 145.652344 43.6875 148.066406 37.253906 152.863281 C 32.296875 156.542969 23.949219 158.574219 13.730469 158.574219 C 7.328125 158.574219 0.523438 157.777344 -5.414062 156.335938 C -11.085938 154.949219 -15.414062 153.082031 -17.285156 151.226562 L -17.726562 150.789062 L -17.726562 195.726562 L 230.1875 195.726562 Z M 230.1875 150.789062 " fill-opacity="1" fill-rule="nonzero"/></g><g clip-path="url(#a9d58a7b5a)"><path fill="#ffffff" d="M -17.726562 195.09375 L 230.1875 195.09375 L 230.1875 196.328125 L -17.726562 196.328125 Z M -17.726562 195.09375 " fill-opacity="1" fill-rule="nonzero"/></g><g clip-path="url(#f8ee43f662)"><path fill="#ffffff" d="M 37.628906 153.371094 C 44.429688 148.316406 53.039062 146.28125 62.074219 146.28125 C 73.160156 146.28125 84.882812 149.332031 94.6875 153.574219 C 102.59375 156.996094 109.6875 164 125.125 164 C 134.09375 164 145.882812 161.636719 162.285156 154.8125 C 168.359375 152.285156 173.234375 151.390625 177.492188 151.390625 C 184.058594 151.390625 189.199219 153.519531 195.066406 155.085938 C 197.089844 155.621094 199.871094 155.9375 202.941406 155.9375 C 211.910156 155.9375 223.273438 153.34375 224.925781 146.515625 C 224.925781 146.515625 228.339844 149.796875 230.1875 151.640625 L 230.1875 149.894531 C 228.3125 148.054688 225.804688 145.652344 225.777344 145.625 L 224.222656 144.125 L 223.710938 146.226562 C 222.292969 152.050781 211.949219 154.703125 202.941406 154.703125 C 200.007812 154.703125 197.324219 154.414062 195.382812 153.890625 C 194.03125 153.535156 192.695312 153.136719 191.402344 152.738281 C 186.9375 151.40625 182.710938 150.140625 177.492188 150.140625 C 172.628906 150.140625 167.492188 151.296875 161.804688 153.65625 C 147.082031 159.769531 135.085938 162.75 125.113281 162.75 C 113.96875 162.75 107.277344 158.972656 101.367188 155.648438 C 99.246094 154.453125 97.25 153.328125 95.171875 152.421875 C 84.152344 147.65625 72.390625 145.03125 62.058594 145.03125 C 57.238281 145.03125 52.734375 145.597656 48.671875 146.722656 C 44.222656 147.945312 40.257812 149.839844 36.871094 152.351562 C 32.023438 155.953125 23.800781 157.941406 13.71875 157.941406 C 7.355469 157.941406 0.605469 157.144531 -5.277344 155.71875 C -10.839844 154.359375 -15.066406 152.558594 -16.859375 150.761719 L -17.726562 149.910156 L -17.726562 151.667969 C -13.691406 155.691406 0.191406 159.207031 13.730469 159.207031 C 22.929688 159.207031 31.964844 157.570312 37.628906 153.371094 Z M 37.628906 153.371094 " fill-opacity="1" fill-rule="nonzero"/></g><g clip-path="url(#05df7b88d9)"><path fill="#d5e9f2" d="M 230.1875 154.386719 C 221.507812 154.386719 213.988281 153.121094 197.515625 150.347656 L 195.988281 150.085938 C 193.21875 149.621094 190.355469 149.386719 187.460938 149.386719 C 180.273438 149.386719 175.34375 150.816406 175.136719 150.871094 L 175.027344 150.898438 L 174.941406 150.964844 C 174.875 151.019531 167.644531 156.28125 162.753906 157.832031 L 160.769531 158.464844 C 148.679688 162.324219 138.238281 165.660156 128.722656 165.660156 C 121.65625 165.660156 115.527344 163.890625 109.453125 160.070312 C 93.433594 150.019531 75.363281 148.660156 59.816406 148.660156 C 58.273438 148.660156 56.8125 148.671875 55.40625 148.6875 C 54.15625 148.699219 52.957031 148.699219 51.839844 148.699219 L 51.082031 148.699219 L 51.234375 149.441406 C 51.386719 150.195312 51.222656 150.910156 50.710938 151.613281 C 48.398438 154.851562 39.570312 157.542969 24.488281 159.605469 C 22.667969 159.851562 20.671875 159.976562 18.566406 159.976562 C 9.945312 159.976562 0.703125 157.929688 -6.722656 156.28125 C -11.542969 155.210938 -15.355469 154.371094 -17.710938 154.371094 L -17.710938 185.917969 L 230.199219 185.917969 L 230.199219 154.386719 Z M 230.1875 154.386719 " fill-opacity="1" fill-rule="nonzero"/></g><g clip-path="url(#c7c847ab7e)"><path fill="#ffffff" d="M -17.726562 185.316406 L 230.1875 185.316406 L 230.1875 186.550781 L -17.726562 186.550781 Z M -17.726562 185.316406 " fill-opacity="1" fill-rule="nonzero"/></g><g clip-path="url(#6f0c4e3116)"><path fill="#ffffff" d="M 24.558594 160.222656 C 39.980469 158.121094 52.929688 154.824219 51.828125 149.332031 C 54.195312 149.332031 56.882812 149.289062 59.816406 149.289062 C 73.546875 149.289062 92.554688 150.210938 109.121094 160.605469 C 115.636719 164.699219 122.011719 166.292969 128.722656 166.292969 C 138.84375 166.292969 149.710938 162.652344 162.945312 158.4375 C 168 156.832031 175.316406 151.472656 175.316406 151.472656 C 175.316406 151.472656 180.285156 150.003906 187.476562 150.003906 C 190.039062 150.003906 192.890625 150.195312 195.890625 150.691406 C 213.632812 153.671875 221.191406 154.988281 230.1875 154.988281 L 230.1875 153.753906 C 221.550781 153.753906 214.058594 152.492188 197.613281 149.730469 L 196.097656 149.46875 C 193.300781 149.003906 190.394531 148.753906 187.476562 148.753906 C 180.191406 148.753906 175.175781 150.210938 174.96875 150.265625 L 174.765625 150.320312 L 174.585938 150.445312 C 174.515625 150.5 167.367188 155.691406 162.574219 157.214844 C 161.898438 157.433594 161.238281 157.640625 160.589844 157.847656 C 148.554688 161.691406 138.140625 165.015625 128.722656 165.015625 C 121.78125 165.015625 115.761719 163.273438 109.785156 159.523438 C 105.804688 157.023438 101.421875 154.90625 96.769531 153.246094 C 92.691406 151.789062 88.257812 150.621094 83.613281 149.785156 C 74.8125 148.207031 66.273438 148.011719 59.800781 148.011719 C 58.257812 148.011719 56.800781 148.027344 55.378906 148.039062 C 54.128906 148.054688 52.929688 148.054688 51.8125 148.054688 L 50.296875 148.054688 L 50.601562 149.539062 C 50.726562 150.128906 50.585938 150.664062 50.1875 151.226562 C 48.671875 153.355469 42.957031 156.433594 24.378906 158.960938 C 22.585938 159.207031 20.617188 159.328125 18.539062 159.328125 C 9.972656 159.328125 0.785156 157.296875 -6.609375 155.648438 C -11.472656 154.578125 -15.316406 153.726562 -17.738281 153.726562 L -17.738281 154.960938 C -11.871094 154.960938 4.269531 160.566406 18.539062 160.566406 C 20.605469 160.605469 22.613281 160.496094 24.558594 160.222656 Z M 24.558594 160.222656 " fill-opacity="1" fill-rule="nonzero"/></g><g clip-path="url(#0d6ccf501c)"><path fill="#002f59" d="M 230.1875 158.671875 C 228.355469 157.214844 225.105469 156.527344 220.050781 156.527344 C 212.585938 156.527344 202.253906 158.023438 190.273438 159.742188 C 175.191406 161.910156 158.113281 164.382812 142.644531 164.382812 C 130.746094 164.382812 121.476562 162.941406 114.316406 159.960938 C 101.644531 154.703125 90.183594 152.132812 79.261719 152.132812 C 66.5625 152.132812 57.0625 155.582031 48.660156 158.628906 C 44.691406 160.070312 40.933594 161.429688 37.367188 162.199219 C 24.40625 164.976562 14.695312 166.707031 6.320312 166.707031 C -3.457031 166.707031 -10.757812 164.34375 -17.339844 159.027344 L -17.726562 158.699219 L -17.726562 202 L 230.1875 202 Z M 230.1875 158.671875 " fill-opacity="1" fill-rule="nonzero"/></g><g clip-path="url(#2edfddfaeb)"><path fill="#ffffff" d="M 37.503906 162.789062 C 48.492188 160.429688 60.53125 152.75 79.261719 152.75 C 88.847656 152.75 100.199219 154.757812 114.082031 160.523438 C 121.984375 163.808594 131.917969 164.988281 142.644531 164.988281 C 170.273438 164.988281 203.148438 157.132812 220.050781 157.132812 C 224.9375 157.132812 228.492188 157.792969 230.1875 159.480469 L 230.1875 157.886719 C 228.1875 156.527344 224.910156 155.898438 220.050781 155.898438 C 212.542969 155.898438 202.1875 157.394531 190.1875 159.125 C 175.136719 161.292969 158.070312 163.753906 142.660156 163.753906 C 130.84375 163.753906 121.65625 162.324219 114.578125 159.386719 C 101.835938 154.082031 90.292969 151.515625 79.289062 151.515625 C 66.480469 151.515625 56.921875 154.988281 48.480469 158.039062 C 44.527344 159.46875 40.796875 160.828125 37.269531 161.582031 C 24.351562 164.355469 14.667969 166.074219 6.347656 166.074219 C -3.277344 166.074219 -10.453125 163.753906 -16.925781 158.535156 L -17.726562 157.902344 L -17.726562 159.496094 C -10.714844 165.152344 -3.015625 167.308594 6.320312 167.308594 C 15.027344 167.308594 25.148438 165.441406 37.503906 162.789062 Z M 37.503906 162.789062 " fill-opacity="1" fill-rule="nonzero"/></g><g clip-path="url(#7749a91977)"><path fill="#ffffff" d="M -17.726562 201.382812 L 230.1875 201.382812 L 230.1875 202.621094 L -17.726562 202.621094 Z M -17.726562 201.382812 " fill-opacity="1" fill-rule="nonzero"/></g><g clip-path="url(#7c5a28b86b)"><path fill="#446f91" d="M 230.1875 167.253906 C 219.953125 167.253906 213.328125 165.234375 207.488281 163.464844 C 202.640625 161.980469 198.054688 160.59375 192.226562 160.59375 C 190.546875 160.59375 188.851562 160.703125 187.0625 160.9375 C 181.125 161.691406 173.882812 165.140625 166.210938 168.777344 C 156.554688 173.367188 146.585938 178.089844 138.128906 178.089844 C 136.171875 178.089844 134.367188 177.828125 132.730469 177.320312 C 128.019531 175.839844 123.417969 173.613281 118.542969 171.25 C 108.449219 166.363281 97.015625 160.8125 81.589844 160.8125 C 72.832031 160.8125 66.246094 162.875 59.882812 164.851562 C 54.320312 166.59375 49.058594 168.230469 42.902344 168.230469 C 37.570312 168.230469 32.023438 166.964844 25.90625 164.355469 C 23.207031 163.203125 19.804688 162.640625 15.507812 162.640625 C 8.304688 162.640625 -0.0273438 164.261719 -6.707031 165.566406 C -11.347656 166.472656 -15.355469 167.253906 -17.710938 167.253906 L -17.710938 202 L 230.199219 202 L 230.199219 167.253906 Z M 230.1875 167.253906 " fill-opacity="1" fill-rule="nonzero"/></g><g clip-path="url(#2084e69ae2)"><path fill="#ffffff" d="M -17.726562 201.382812 L 230.1875 201.382812 L 230.1875 202.621094 L -17.726562 202.621094 Z M -17.726562 201.382812 " fill-opacity="1" fill-rule="nonzero"/></g><g clip-path="url(#55cdf50079)"><path fill="#ffffff" d="M 25.660156 164.917969 C 32.394531 167.789062 37.929688 168.832031 42.886719 168.832031 C 56.109375 168.832031 65.144531 161.417969 81.578125 161.417969 C 104.164062 161.417969 117.828125 173.269531 132.535156 177.898438 C 134.300781 178.449219 136.171875 178.707031 138.128906 178.707031 C 153.527344 178.707031 173.9375 163.246094 187.144531 161.542969 C 188.964844 161.308594 190.644531 161.199219 192.226562 161.199219 C 204.941406 161.199219 211.371094 167.871094 230.1875 167.871094 L 230.1875 166.636719 C 220.050781 166.636719 213.464844 164.632812 207.679688 162.875 C 202.777344 161.375 198.148438 159.976562 192.226562 159.976562 C 190.519531 159.976562 188.796875 160.085938 186.980469 160.320312 C 180.949219 161.089844 173.660156 164.550781 165.933594 168.214844 C 156.347656 172.761719 146.433594 177.472656 138.113281 177.472656 C 136.226562 177.472656 134.476562 177.226562 132.90625 176.730469 C 128.238281 175.261719 123.652344 173.035156 118.804688 170.6875 C 108.652344 165.757812 97.152344 160.179688 81.578125 160.179688 C 72.71875 160.179688 66.097656 162.253906 59.691406 164.246094 C 54.167969 165.976562 48.949219 167.597656 42.886719 167.597656 C 37.640625 167.597656 32.171875 166.347656 26.140625 163.78125 C 23.359375 162.597656 19.886719 162.023438 15.496094 162.023438 C 8.234375 162.023438 -0.125 163.65625 -6.84375 164.960938 C -11.445312 165.867188 -15.425781 166.636719 -17.726562 166.636719 L -17.726562 167.871094 C -11.832031 167.871094 3.375 163.273438 15.507812 163.257812 C 19.324219 163.257812 22.835938 163.726562 25.660156 164.917969 Z M 25.660156 164.917969 " fill-opacity="1" fill-rule="nonzero"/></g><g clip-path="url(#5043bb037b)"><path fill="#d5e9f2" d="M 230.1875 182.484375 L 229.757812 182.882812 C 226.742188 185.683594 222.84375 187.058594 217.871094 187.058594 C 207.820312 187.058594 195.355469 181.386719 184.363281 176.375 C 175.425781 172.292969 167.699219 168.777344 162.546875 168.777344 C 147.960938 168.777344 140.539062 172.253906 133.980469 175.316406 C 129.1875 177.554688 125.058594 179.492188 119.023438 179.492188 C 112.8125 179.492188 107.125 176.675781 100.554688 173.421875 C 92.277344 169.316406 82.886719 164.660156 69.992188 164.660156 L 69.980469 164.660156 C 57.28125 164.660156 48.726562 168.121094 41.195312 171.167969 C 34.941406 173.695312 29.554688 175.878906 22.847656 175.894531 L 22.726562 175.894531 C 19.804688 175.894531 16.832031 175.769531 13.953125 175.660156 C 11.15625 175.550781 8.261719 175.441406 5.496094 175.441406 C 0.234375 175.441406 -3.84375 175.878906 -7.328125 176.8125 C -11.472656 177.925781 -14.890625 179.792969 -17.738281 182.484375 L -17.738281 202.027344 L 230.171875 202.027344 L 230.171875 182.484375 Z M 230.1875 182.484375 " fill-opacity="1" fill-rule="nonzero"/></g><g clip-path="url(#c437638802)"><path fill="#ffffff" d="M -17.726562 201.382812 L 230.1875 201.382812 L 230.1875 202.621094 L -17.726562 202.621094 Z M -17.726562 201.382812 " fill-opacity="1" fill-rule="nonzero"/></g><g clip-path="url(#610f74757c)"><path fill="#ffffff" d="M 22.738281 176.484375 C 22.78125 176.484375 22.820312 176.484375 22.863281 176.484375 C 38.054688 176.46875 47.15625 165.261719 69.992188 165.261719 C 69.992188 165.261719 70.007812 165.261719 70.007812 165.261719 C 92.871094 165.261719 104.660156 180.09375 119.039062 180.09375 C 133.417969 180.09375 137.21875 169.382812 162.5625 169.382812 C 173.9375 169.382812 199.652344 187.664062 217.886719 187.664062 C 222.625 187.664062 226.851562 186.425781 230.1875 183.324219 L 230.1875 181.632812 L 229.347656 182.417969 C 226.441406 185.109375 222.695312 186.414062 217.886719 186.414062 C 207.96875 186.414062 195.574219 180.769531 184.640625 175.785156 C 175.632812 171.675781 167.851562 168.132812 162.5625 168.132812 C 156.003906 168.132812 150.277344 168.832031 145.054688 170.289062 C 140.484375 171.566406 136.902344 173.242188 133.734375 174.726562 C 129.011719 176.9375 124.933594 178.847656 119.039062 178.847656 C 112.964844 178.847656 107.34375 176.058594 100.84375 172.832031 C 92.5 168.710938 83.050781 164.027344 70.007812 164.027344 L 69.992188 164.027344 C 57.171875 164.027344 48.5625 167.5 40.972656 170.578125 C 34.789062 173.078125 29.445312 175.246094 22.863281 175.246094 L 22.738281 175.246094 C 19.832031 175.246094 16.859375 175.125 13.992188 175.015625 C 11.195312 174.902344 8.289062 174.78125 5.507812 174.78125 C 0.179688 174.78125 -3.9375 175.21875 -7.480469 176.179688 C -11.527344 177.28125 -14.890625 179.066406 -17.726562 181.621094 L -17.726562 183.324219 C -11.597656 177.210938 -3.402344 176.03125 5.507812 176.03125 C 11.074219 176.03125 16.925781 176.484375 22.738281 176.484375 Z M 22.738281 176.484375 " fill-opacity="1" fill-rule="nonzero"/></g><g clip-path="url(#9c0e25475b)"><path fill="#002f59" d="M 230.1875 172.460938 C 220.667969 172.460938 214.03125 173.65625 207.625 174.808594 C 201.855469 175.851562 196.402344 176.839844 189.308594 176.839844 C 181.71875 176.839844 173.332031 175.714844 162.90625 173.3125 C 157.796875 172.128906 153.664062 171.582031 149.902344 171.582031 C 143.800781 171.582031 139.09375 173.023438 132.5625 175.027344 C 129.519531 175.960938 126.078125 177.019531 121.902344 178.117188 C 119.023438 178.875 115.789062 179.257812 112.304688 179.257812 C 100.554688 179.257812 87.828125 174.933594 80.226562 172.363281 C 77.195312 171.332031 74.785156 170.523438 73.410156 170.289062 C 72.84375 170.195312 72.238281 170.152344 71.578125 170.152344 C 67.019531 170.152344 60.628906 172.460938 53.851562 174.917969 C 45.628906 177.882812 36.304688 181.261719 28.277344 181.261719 C 20.410156 181.261719 12.492188 178.996094 4.847656 176.800781 C -2.589844 174.65625 -10.289062 172.460938 -17.726562 172.460938 L -17.726562 209.609375 L 230.1875 209.609375 Z M 230.1875 172.460938 " fill-opacity="1" fill-rule="nonzero"/></g><g clip-path="url(#6b7f263a5d)"><path fill="#ffffff" d="M -17.726562 208.992188 L 230.1875 208.992188 L 230.1875 210.226562 L -17.726562 210.226562 Z M -17.726562 208.992188 " fill-opacity="1" fill-rule="nonzero"/></g><g clip-path="url(#a391a00a6c)"><path fill="#ffffff" d="M 71.589844 170.757812 C 72.195312 170.757812 72.777344 170.796875 73.3125 170.894531 C 78.105469 171.691406 95.886719 179.875 112.304688 179.875 C 115.652344 179.875 118.957031 179.53125 122.070312 178.722656 C 135.152344 175.300781 141.074219 172.199219 149.902344 172.199219 C 153.484375 172.199219 157.546875 172.707031 162.769531 173.914062 C 174.199219 176.550781 182.492188 177.457031 189.308594 177.457031 C 204.292969 177.457031 212.101562 173.078125 230.1875 173.078125 L 230.1875 171.839844 C 220.613281 171.839844 213.949219 173.050781 207.515625 174.203125 C 201.773438 175.246094 196.347656 176.222656 189.308594 176.222656 C 181.773438 176.222656 173.429688 175.109375 163.042969 172.71875 C 157.890625 171.527344 153.707031 170.976562 149.902344 170.976562 C 143.707031 170.976562 138.953125 172.433594 132.382812 174.449219 C 129.355469 175.386719 125.910156 176.441406 121.753906 177.527344 C 118.914062 178.269531 115.746094 178.640625 112.304688 178.640625 C 100.664062 178.640625 87.996094 174.339844 80.433594 171.773438 C 77.25 170.6875 74.953125 169.90625 73.519531 169.671875 C 72.925781 169.574219 72.28125 169.519531 71.589844 169.519531 C 66.921875 169.519531 60.78125 171.746094 53.660156 174.328125 C 45.476562 177.292969 36.195312 180.644531 28.277344 180.644531 C 20.492188 180.644531 12.628906 178.394531 5.011719 176.210938 C -2.464844 174.054688 -10.191406 171.839844 -17.726562 171.839844 L -17.726562 173.078125 C -2.824219 173.078125 12.574219 181.882812 28.277344 181.882812 C 43.066406 181.882812 61.703125 170.757812 71.589844 170.757812 Z M 71.589844 170.757812 " fill-opacity="1" fill-rule="nonzero"/></g><g clip-path="url(#c10874a240)"><path fill="#446f91" d="M 230.1875 178.105469 C 224.292969 172.171875 208.960938 168.503906 208.285156 168.351562 L 207.363281 168.132812 L 207.53125 169.066406 C 207.558594 169.203125 208.09375 172.324219 205.257812 175.714844 C 202.089844 179.503906 194.265625 184.011719 174.941406 184.011719 C 167.644531 184.011719 162.078125 181.949219 156.199219 179.765625 C 149.433594 177.265625 142.4375 174.671875 131.972656 174.671875 C 121.640625 174.671875 116.050781 176.523438 110.636719 178.308594 C 105.554688 179.984375 100.75 181.578125 92.222656 181.8125 C 90.582031 181.855469 88.984375 181.882812 87.457031 181.882812 C 78.421875 181.882812 71.273438 181.097656 66.21875 179.558594 C 62.460938 178.421875 59.898438 176.882812 58.617188 175 C 57.210938 172.941406 57.875 171.210938 57.902344 171.140625 L 58.328125 170.125 L 57.238281 170.304688 C 56.992188 170.34375 32.226562 174.285156 20.316406 179.410156 C 19.378906 179.808594 18.414062 180.234375 17.492188 180.644531 C 11.484375 183.296875 5.273438 186.042969 -1.046875 186.042969 C -6.957031 186.042969 -12.273438 183.613281 -17.285156 178.597656 L -17.726562 178.132812 L -17.726562 219.925781 L 230.1875 219.925781 Z M 230.1875 178.105469 " fill-opacity="1" fill-rule="nonzero"/></g><g clip-path="url(#56c0ce5ac2)"><path fill="#ffffff" d="M 20.5625 179.957031 C 32.546875 174.808594 57.335938 170.894531 57.335938 170.894531 C 57.335938 170.894531 52.53125 182.5 87.472656 182.5 C 88.984375 182.5 90.582031 182.472656 92.25 182.429688 C 110.277344 181.9375 112.359375 175.289062 131.984375 175.289062 C 151.613281 175.289062 159.253906 184.628906 174.957031 184.628906 C 211.179688 184.628906 208.148438 168.957031 208.148438 168.957031 C 208.148438 168.957031 224.746094 172.871094 230.1875 179.011719 L 230.1875 177.253906 C 223.878906 171.441406 209.101562 167.914062 208.4375 167.75 L 206.539062 167.296875 L 206.9375 169.175781 C 206.964844 169.371094 207.390625 172.226562 204.773438 175.34375 C 201.675781 179.023438 193.992188 183.390625 174.957031 183.390625 C 167.765625 183.390625 162.257812 181.34375 156.433594 179.1875 C 149.613281 176.664062 142.5625 174.054688 131.984375 174.054688 C 121.546875 174.054688 115.914062 175.921875 110.457031 177.71875 C 105.417969 179.382812 100.664062 180.960938 92.222656 181.195312 C 90.597656 181.234375 89 181.261719 87.472656 181.261719 C 78.546875 181.261719 71.480469 180.492188 66.46875 178.984375 C 62.886719 177.898438 60.367188 176.414062 59.167969 174.683594 C 57.96875 172.953125 58.4375 171.511719 58.492188 171.359375 L 59.429688 169.289062 L 57.15625 169.683594 C 57.089844 169.699219 50.835938 170.6875 43.207031 172.292969 C 32.917969 174.464844 25.136719 176.664062 20.09375 178.832031 C 19.15625 179.230469 18.195312 179.65625 17.269531 180.066406 C 11.320312 182.691406 5.179688 185.410156 -1.019531 185.410156 C -6.75 185.410156 -11.925781 183.035156 -16.832031 178.144531 L -17.726562 177.265625 L -17.726562 179.011719 C -12.050781 184.667969 -6.488281 186.632812 -1.046875 186.632812 C 6.417969 186.632812 13.636719 182.9375 20.5625 179.957031 Z M 20.5625 179.957031 " fill-opacity="1" fill-rule="nonzero"/></g><g clip-path="url(#f4c413e8a3)"><path fill="#d5e9f2" d="M 230.1875 185.933594 C 223.023438 185.933594 217.609375 186.496094 212.363281 187.046875 C 207.984375 187.5 203.851562 187.9375 199.265625 187.9375 C 192.515625 187.9375 185.453125 186.949219 177.023438 184.832031 C 173.523438 183.953125 169.503906 183.527344 164.738281 183.527344 C 154.0625 183.527344 142 185.699219 131.351562 187.621094 C 123.265625 189.078125 116.285156 190.328125 111.601562 190.328125 C 104.398438 190.328125 93.269531 188.238281 83.449219 186.398438 C 74.839844 184.777344 66.730469 183.253906 62.085938 183.253906 C 58.136719 183.253906 55.035156 184.492188 52.035156 185.699219 C 49.445312 186.742188 46.992188 187.71875 44.265625 187.71875 C 42.046875 187.71875 39.804688 187.058594 37.40625 185.683594 C 33.398438 183.390625 28.59375 182.335938 22.269531 182.335938 C 16.773438 182.335938 10.785156 183.144531 4.433594 183.980469 C -2.714844 184.945312 -10.109375 185.933594 -17.738281 185.933594 L -17.738281 222.875 L 230.171875 222.875 L 230.171875 185.933594 Z M 230.1875 185.933594 " fill-opacity="1" fill-rule="nonzero"/></g><g clip-path="url(#15aac41841)"><path fill="#ffffff" d="M 37.105469 186.222656 C 39.804688 187.757812 42.132812 188.335938 44.265625 188.335938 C 50.257812 188.335938 54.773438 183.871094 62.074219 183.871094 C 71.992188 183.871094 98.089844 190.945312 111.585938 190.945312 C 122.523438 190.945312 145.992188 184.148438 164.738281 184.148438 C 169.117188 184.148438 173.234375 184.519531 176.871094 185.4375 C 186.347656 187.8125 193.21875 188.554688 199.265625 188.554688 C 209.210938 188.554688 216.882812 186.550781 230.171875 186.550781 L 230.171875 185.316406 C 222.984375 185.316406 217.292969 185.90625 212.296875 186.425781 C 207.929688 186.878906 203.8125 187.320312 199.265625 187.320312 C 192.570312 187.320312 185.546875 186.34375 177.175781 184.230469 C 173.632812 183.335938 169.558594 182.910156 164.738281 182.910156 C 154.007812 182.910156 141.914062 185.082031 131.242188 187.003906 C 123.183594 188.460938 116.230469 189.710938 111.601562 189.710938 C 104.453125 189.710938 93.351562 187.621094 83.558594 185.78125 C 74.925781 184.160156 66.785156 182.636719 62.085938 182.636719 C 58.011719 182.636719 54.71875 183.953125 51.8125 185.121094 C 49.277344 186.136719 46.882812 187.101562 44.28125 187.101562 C 42.171875 187.101562 40.023438 186.46875 37.722656 185.148438 C 33.621094 182.800781 28.714844 181.714844 22.285156 181.714844 L 22.285156 182.953125 L 22.285156 181.714844 C 16.746094 181.714844 10.730469 182.527344 4.367188 183.378906 C -2.753906 184.324219 -10.136719 185.316406 -17.726562 185.316406 L -17.726562 186.550781 C -3.195312 186.550781 10.714844 182.953125 22.285156 182.953125 C 27.820312 182.953125 32.835938 183.777344 37.105469 186.222656 Z M 37.105469 186.222656 " fill-opacity="1" fill-rule="nonzero"/></g><g clip-path="url(#0f68b99fdf)"><path fill="#002f59" d="M 230.1875 191.042969 C 226.066406 187.046875 222.140625 184.613281 221.976562 184.519531 L 221.742188 184.367188 L 221.480469 184.449219 C 221.152344 184.546875 188.289062 194.476562 175.109375 194.476562 C 174.144531 194.476562 173.179688 194.476562 172.203125 194.488281 C 171.195312 194.488281 170.175781 194.503906 169.144531 194.503906 C 156.597656 194.503906 142.355469 193.898438 118.488281 186.59375 C 113.765625 185.148438 109.480469 184.449219 105.429688 184.449219 C 96.121094 184.449219 89.855469 188.226562 83.792969 191.867188 C 78.09375 195.273438 72.734375 198.5 65.1875 198.5 C 55.105469 198.5 49.402344 194.214844 43.878906 190.082031 C 39.058594 186.46875 34.515625 183.046875 27.585938 183.046875 C 21.664062 183.046875 14.597656 185.917969 7.765625 188.707031 C 1.058594 191.441406 -5.273438 194.007812 -10.441406 194.007812 C -13.332031 194.007812 -15.578125 193.183594 -17.285156 191.46875 L -17.726562 191.027344 L -17.726562 217.175781 L 230.1875 217.175781 Z M 230.1875 191.042969 " fill-opacity="1" fill-rule="nonzero"/></g><g clip-path="url(#d86efd0019)"><path fill="#ffffff" d="M -17.726562 216.574219 L 230.1875 216.574219 L 230.1875 217.808594 L -17.726562 217.808594 Z M -17.726562 216.574219 " fill-opacity="1" fill-rule="nonzero"/></g><g clip-path="url(#4ad6fad9f7)"><path fill="#ffffff" d="M 27.585938 183.667969 C 42.046875 183.667969 45.972656 199.117188 65.1875 199.117188 C 81.066406 199.117188 87.636719 185.039062 105.402344 185.039062 C 109.136719 185.039062 113.363281 185.65625 118.28125 187.167969 C 142.480469 194.570312 157.023438 195.105469 169.128906 195.105469 C 171.183594 195.105469 173.152344 195.09375 175.09375 195.09375 C 188.523438 195.09375 221.648438 185.039062 221.648438 185.039062 C 221.648438 185.039062 225.917969 187.648438 230.1875 191.90625 L 230.1875 190.175781 C 226.179688 186.371094 222.460938 184.078125 222.292969 183.980469 L 221.8125 183.695312 L 221.273438 183.859375 C 220.945312 183.953125 188.179688 193.855469 175.082031 193.855469 C 174.117188 193.855469 173.167969 193.855469 172.175781 193.871094 C 171.183594 193.871094 170.148438 193.882812 169.117188 193.882812 C 156.625 193.882812 142.425781 193.28125 118.640625 186 C 113.859375 184.519531 109.523438 183.804688 105.402344 183.804688 C 95.914062 183.804688 89.578125 187.621094 83.449219 191.316406 C 77.84375 194.695312 72.554688 197.882812 65.1875 197.882812 C 55.3125 197.882812 49.691406 193.664062 44.25 189.585938 C 41.800781 187.746094 39.488281 186 36.84375 184.683594 C 33.839844 183.171875 30.808594 182.429688 27.585938 182.429688 C 21.539062 182.429688 14.417969 185.328125 7.535156 188.128906 C 0.882812 190.835938 -5.398438 193.390625 -10.441406 193.390625 C -13.167969 193.390625 -15.261719 192.621094 -16.859375 191.042969 L -17.726562 190.164062 L -17.726562 191.90625 C -15.769531 193.855469 -13.277344 194.625 -10.441406 194.625 C 0.300781 194.625 16.15625 183.667969 27.585938 183.667969 Z M 27.585938 183.667969 " fill-opacity="1" fill-rule="nonzero"/></g><g clip-path="url(#aa67587410)"><path fill="#446f91" d="M 230.1875 225.003906 L 230.1875 190.449219 C 225.046875 190.449219 219.59375 192.992188 213.808594 195.671875 C 208.136719 198.308594 202.269531 201.039062 196.898438 201.039062 C 194.96875 201.039062 193.234375 200.695312 191.59375 199.996094 C 184.40625 196.90625 179.117188 195.121094 173.359375 195.121094 C 170.507812 195.121094 167.464844 195.53125 163.457031 196.464844 C 161.128906 197.003906 159.722656 197.703125 158.375 198.390625 C 154.929688 200.105469 151.378906 201.890625 131.945312 201.890625 C 128.460938 201.890625 124.519531 201.835938 120.222656 201.710938 C 102.539062 201.230469 99.355469 201.136719 80.679688 194.613281 C 77.800781 193.609375 75.597656 193.117188 73.917969 193.117188 C 70.199219 193.117188 69.496094 195.503906 68.808594 197.8125 C 67.941406 200.75 67.046875 203.785156 60.078125 203.785156 C 44.597656 203.785156 21.25 201.066406 6.570312 195.863281 C -2.878906 192.484375 -9.226562 190.449219 -17.726562 190.449219 L -17.726562 225.003906 Z M 230.1875 225.003906 " fill-opacity="1" fill-rule="nonzero"/></g><g clip-path="url(#456b90d66f)"><path fill="#ffffff" d="M 6.375 196.425781 C 21.140625 201.65625 44.390625 204.390625 60.089844 204.390625 C 73.175781 204.390625 66.371094 193.71875 73.917969 193.71875 C 75.433594 193.71875 77.527344 194.144531 80.476562 195.175781 C 99 201.65625 102.179688 201.824219 120.210938 202.316406 C 124.65625 202.441406 128.542969 202.496094 131.945312 202.496094 C 159.253906 202.496094 155.632812 198.910156 163.59375 197.058594 C 167.339844 196.191406 170.410156 195.726562 173.359375 195.726562 C 178.703125 195.726562 183.621094 197.234375 191.347656 200.558594 C 193.136719 201.328125 194.996094 201.65625 196.898438 201.65625 C 207.722656 201.65625 220.035156 191.070312 230.1875 191.070312 L 230.1875 189.832031 C 224.910156 189.832031 219.140625 192.523438 213.546875 195.121094 C 207.929688 197.730469 202.128906 200.421875 196.898438 200.421875 C 195.050781 200.421875 193.398438 200.09375 191.828125 199.417969 C 184.554688 196.300781 179.210938 194.488281 173.34375 194.488281 C 170.453125 194.488281 167.355469 194.914062 163.289062 195.847656 C 160.894531 196.410156 159.460938 197.125 158.070312 197.8125 C 154.695312 199.5 151.210938 201.246094 131.929688 201.246094 C 128.460938 201.246094 124.519531 201.191406 120.222656 201.066406 C 102.621094 200.585938 99.453125 200.503906 80.859375 193.996094 C 77.914062 192.964844 75.640625 192.46875 73.90625 192.46875 C 69.71875 192.46875 68.878906 195.3125 68.203125 197.605469 C 67.777344 199.035156 67.390625 200.378906 66.328125 201.382812 C 65.089844 202.5625 63.050781 203.140625 60.0625 203.140625 C 44.636719 203.140625 21.390625 200.4375 6.761719 195.246094 C -2.753906 191.867188 -9.160156 189.820312 -17.753906 189.820312 L -17.753906 191.054688 C -9.394531 191.070312 -3.167969 193.03125 6.375 196.425781 Z M 6.375 196.425781 " fill-opacity="1" fill-rule="nonzero"/></g><g clip-path="url(#9640c15d6d)"><path fill="#446f91" d="M 2.972656 214.375 L 2.824219 214.375 C 2.824219 214.375 2.617188 214.375 2.257812 214.375 C -1.128906 214.375 -12.355469 214.761719 -17.710938 219.511719 L -17.710938 225.003906 L 32.421875 225.003906 C 18.289062 223.136719 3.292969 214.554688 3.125 214.457031 Z M 2.972656 214.375 " fill-opacity="1" fill-rule="nonzero"/></g><g clip-path="url(#6f9afa7158)"><path fill="#446f91" d="M 192.144531 220.734375 C 184.886719 217.617188 179.832031 216.339844 174.722656 216.339844 C 171.582031 216.339844 168.207031 216.804688 163.457031 217.917969 C 161.128906 218.453125 159.722656 219.15625 158.375 219.839844 C 154.929688 221.558594 151.378906 223.34375 131.945312 223.34375 C 128.460938 223.34375 124.519531 223.289062 120.222656 223.164062 C 111.683594 222.933594 106.890625 221.339844 101.808594 219.664062 C 96.394531 217.878906 90.804688 216.023438 80.476562 216.023438 C 70.007812 216.023438 63.011719 218.621094 56.25 221.117188 C 51.828125 222.753906 47.597656 224.320312 42.683594 225.003906 L 202.503906 225.003906 C 199.679688 224.015625 196.898438 222.808594 194.140625 221.597656 C 193.46875 221.3125 192.804688 221.023438 192.144531 220.734375 Z M 192.144531 220.734375 " fill-opacity="1" fill-rule="nonzero"/></g><g clip-path="url(#66d8d059b9)"><path fill="#ffffff" d="M 192.394531 220.171875 C 185.039062 217.011719 179.929688 215.722656 174.722656 215.722656 C 171.527344 215.722656 168.125 216.203125 163.320312 217.316406 C 160.921875 217.878906 159.488281 218.59375 158.097656 219.277344 C 154.722656 220.96875 151.238281 222.710938 131.957031 222.710938 C 128.488281 222.710938 124.546875 222.65625 120.25 222.535156 C 111.808594 222.300781 107.042969 220.734375 102.015625 219.058594 C 96.5625 217.257812 90.914062 215.390625 80.488281 215.390625 C 69.910156 215.390625 62.859375 218 56.042969 220.527344 C 50.214844 222.683594 44.707031 224.730469 37.515625 224.730469 C 29.625 224.730469 20.796875 221.804688 14.777344 219.347656 C 8.207031 216.667969 3.46875 213.9375 3.429688 213.910156 L 3.152344 213.742188 L 2.835938 213.730469 C 2.824219 213.730469 2.617188 213.730469 2.257812 213.730469 C 0.824219 213.730469 -2.960938 213.8125 -7.050781 214.527344 C -11.75 215.351562 -15.328125 216.75 -17.710938 218.675781 L -17.710938 220.335938 C -12.617188 215.253906 -0.453125 214.964844 2.257812 214.964844 C 2.617188 214.964844 2.808594 214.964844 2.808594 214.964844 C 2.808594 214.964844 15.492188 222.300781 28.6875 224.976562 L 46.140625 224.976562 C 56.757812 222.589844 64.789062 216.613281 80.488281 216.613281 C 100.113281 216.613281 102.195312 223.261719 120.222656 223.753906 C 124.671875 223.878906 128.554688 223.933594 131.957031 223.933594 C 159.269531 223.933594 155.648438 220.351562 163.609375 218.496094 C 167.851562 217.507812 171.320312 216.945312 174.734375 216.945312 C 179.804688 216.945312 184.75 218.207031 191.910156 221.285156 C 194.777344 222.519531 197.722656 223.851562 200.710938 224.976562 L 204.472656 224.976562 C 201.070312 223.921875 197.695312 222.449219 194.390625 221.007812 C 193.730469 220.75 193.054688 220.460938 192.394531 220.171875 Z M 192.394531 220.171875 " fill-opacity="1" fill-rule="nonzero"/></g><g clip-path="url(#a1a955239b)"><path fill="#d5e9f2" d="M 230.1875 200.503906 C 226.273438 196.644531 220.738281 194.847656 212.859375 194.847656 C 205.324219 194.847656 196.59375 196.492188 187.351562 198.25 C 177.089844 200.203125 166.472656 202.207031 156.320312 202.207031 C 147.535156 202.207031 140.304688 200.683594 134.203125 197.539062 C 133.046875 196.945312 131.613281 196.644531 129.824219 196.644531 C 126.585938 196.644531 122.605469 197.605469 118.390625 198.609375 C 113.53125 199.777344 108.488281 200.984375 103.804688 200.984375 C 101.367188 200.984375 99.273438 200.65625 97.429688 199.980469 C 93.917969 198.691406 89.992188 198.046875 85.761719 198.046875 C 74.746094 198.046875 63.257812 202.316406 53.136719 206.082031 C 45.519531 208.910156 38.949219 211.355469 34.238281 211.355469 L 33.839844 211.355469 C 28.9375 211.355469 18.71875 211.355469 8.320312 210.007812 C -4.269531 208.386719 -12.878906 205.339844 -17.273438 200.945312 L -17.726562 200.503906 L -17.726562 222.875 L 230.1875 222.875 Z M 230.1875 200.503906 " fill-opacity="1" fill-rule="nonzero"/></g><g clip-path="url(#3773216485)"><path fill="#ffffff" d="M 34.226562 211.972656 C 45.367188 211.972656 66.535156 198.664062 85.75 198.664062 C 89.6875 198.664062 93.53125 199.226562 97.195312 200.558594 C 99.234375 201.300781 101.464844 201.601562 103.777344 201.601562 C 112.675781 201.601562 123.019531 197.261719 129.796875 197.261719 C 131.378906 197.261719 132.769531 197.496094 133.898438 198.085938 C 140.691406 201.589844 148.332031 202.824219 156.308594 202.824219 C 175.714844 202.824219 197.074219 195.464844 212.847656 195.464844 C 220.007812 195.464844 226.011719 196.976562 230.171875 201.382812 L 230.171875 199.652344 C 228.203125 197.839844 225.792969 196.480469 223.011719 195.585938 C 220.117188 194.667969 216.796875 194.214844 212.847656 194.214844 C 205.242188 194.214844 196.496094 195.875 187.214844 197.632812 C 176.980469 199.570312 166.390625 201.574219 156.308594 201.574219 C 147.632812 201.574219 140.484375 200.066406 134.476562 196.976562 C 133.226562 196.328125 131.695312 196.011719 129.808594 196.011719 C 126.503906 196.011719 122.480469 196.976562 118.226562 198.003906 C 113.390625 199.160156 108.390625 200.367188 103.792969 200.367188 C 101.421875 200.367188 99.414062 200.050781 97.636719 199.40625 C 94.054688 198.101562 90.0625 197.429688 85.75 197.429688 C 74.621094 197.429688 63.078125 201.710938 52.902344 205.503906 C 45.339844 208.320312 38.824219 210.734375 34.226562 210.734375 L 33.824219 210.734375 C 28.9375 210.734375 18.746094 210.734375 8.375 209.390625 C -4.0625 207.785156 -12.5625 204.789062 -16.859375 200.503906 L -17.726562 199.640625 L -17.726562 201.382812 C -7.175781 211.902344 23.742188 211.972656 33.824219 211.972656 C 33.964844 211.972656 34.101562 211.972656 34.226562 211.972656 Z M 34.226562 211.972656 " fill-opacity="1" fill-rule="nonzero"/></g><g clip-path="url(#dd247f78e2)"><path fill="#446f91" d="M 220.132812 217.136719 C 213.851562 217.136719 208.164062 212.851562 202.128906 208.320312 C 195.039062 202.976562 187.710938 197.457031 178.164062 197.457031 C 174.324219 197.457031 170.496094 198.347656 166.445312 200.175781 C 165.039062 200.804688 163.675781 201.453125 162.355469 202.054688 C 155.59375 205.214844 149.738281 207.933594 144.296875 207.933594 C 140.207031 207.933594 136.667969 206.421875 133.167969 203.183594 C 131.722656 201.835938 129.507812 201.191406 126.40625 201.191406 C 121.929688 201.191406 116.007812 202.550781 109.753906 203.980469 C 102.59375 205.628906 94.480469 207.480469 87.472656 207.480469 C 83.738281 207.480469 80.652344 206.972656 78.023438 205.941406 C 70.984375 203.15625 65.242188 201.863281 59.925781 201.863281 C 56.757812 201.863281 54.238281 202.316406 51.8125 202.757812 C 49.746094 203.128906 47.792969 203.472656 45.683594 203.472656 C 43.027344 203.472656 40.421875 202.90625 37.476562 201.683594 C 33.207031 199.914062 28.34375 199.019531 23.015625 199.019531 C 10.261719 199.019531 -4.1875 204.15625 -17.726562 213.46875 L -17.726562 224.992188 L 230.1875 224.992188 L 230.1875 213.46875 L 229.828125 213.714844 C 226.523438 216.023438 223.355469 217.136719 220.132812 217.136719 Z M 220.132812 217.136719 " fill-opacity="1" fill-rule="nonzero"/></g><g clip-path="url(#36194fc5ea)"><path fill="#ffffff" d="M 220.132812 216.519531 C 214.058594 216.519531 208.453125 212.289062 202.503906 207.824219 C 199.019531 205.203125 195.410156 202.480469 191.441406 200.40625 C 186.882812 198.019531 182.546875 196.851562 178.152344 196.851562 C 174.214844 196.851562 170.300781 197.757812 166.167969 199.625 C 164.765625 200.257812 163.402344 200.902344 162.078125 201.519531 C 155.386719 204.636719 149.601562 207.34375 144.285156 207.34375 C 140.359375 207.34375 136.957031 205.886719 133.582031 202.757812 C 132.011719 201.300781 129.671875 200.601562 126.40625 200.601562 C 121.863281 200.601562 115.914062 201.960938 109.617188 203.414062 C 102.496094 205.050781 94.414062 206.902344 87.472656 206.902344 C 83.820312 206.902344 80.804688 206.410156 78.257812 205.40625 C 71.152344 202.59375 65.324219 201.289062 59.925781 201.289062 C 56.703125 201.289062 54.042969 201.769531 51.703125 202.179688 C 49.664062 202.550781 47.738281 202.894531 45.683594 202.894531 C 43.109375 202.894531 40.574219 202.34375 37.722656 201.164062 C 33.371094 199.363281 28.425781 198.445312 23.027344 198.445312 C 10.261719 198.445312 -4.171875 203.527344 -17.710938 212.753906 L -17.710938 214.25 C -3.828125 204.609375 10.660156 199.667969 23.027344 199.667969 C 28.207031 199.667969 33.011719 200.53125 37.242188 202.289062 C 40.574219 203.675781 43.246094 204.117188 45.683594 204.117188 C 50.285156 204.117188 54.070312 202.507812 59.9375 202.507812 C 64.320312 202.507812 69.882812 203.402344 77.816406 206.546875 C 80.695312 207.6875 83.988281 208.140625 87.484375 208.140625 C 100.625 208.140625 116.847656 201.835938 126.421875 201.835938 C 129.148438 201.835938 131.339844 202.34375 132.757812 203.664062 C 136.597656 207.207031 140.371094 208.578125 144.3125 208.578125 C 150.976562 208.578125 158.097656 204.652344 166.707031 200.765625 C 170.867188 198.882812 174.652344 198.101562 178.179688 198.101562 C 195.78125 198.101562 206.332031 217.78125 220.144531 217.78125 C 223.285156 217.78125 226.605469 216.765625 230.199219 214.265625 L 230.199219 212.753906 L 229.496094 213.25 C 226.289062 215.445312 223.230469 216.519531 220.132812 216.519531 Z M 220.132812 216.519531 " fill-opacity="1" fill-rule="nonzero"/></g><g clip-path="url(#aaa7cfe126)"><path fill="#d5e9f2" d="M 217.226562 202.042969 C 213.011719 200.792969 208.34375 200.203125 202.503906 200.203125 C 194.253906 200.203125 187.367188 201.355469 180.191406 203.964844 C 173.332031 206.449219 166.167969 210.226562 157.105469 215.019531 C 156.28125 215.460938 155.441406 215.898438 154.574219 216.367188 C 147.492188 220.101562 141.144531 221.914062 135.152344 221.914062 C 125.980469 221.914062 119.617188 217.644531 114.011719 213.867188 C 111.726562 212.328125 109.5625 210.875 107.46875 209.925781 C 104.148438 208.414062 100.925781 207.6875 97.59375 207.6875 C 91.628906 207.6875 85.902344 209.996094 78.65625 212.90625 L 78.324219 213.042969 C 76.148438 213.921875 73.65625 214.363281 70.917969 214.363281 C 62.003906 214.363281 52.019531 209.773438 44.734375 206.421875 C 41.179688 204.789062 38.371094 203.5 36.523438 203.113281 C 36.25 203.058594 35.933594 203.03125 35.574219 203.03125 C 32.890625 203.03125 27.929688 204.609375 21.636719 206.617188 C 12.546875 209.515625 1.226562 213.125 -7.355469 213.125 C -11.898438 213.125 -15.234375 212.082031 -17.300781 210.035156 L -17.726562 209.609375 L -17.726562 225.003906 L 230.1875 225.003906 L 230.1875 209.609375 C 226.589844 206.039062 222.335938 203.566406 217.226562 202.042969 Z M 217.226562 202.042969 " fill-opacity="1" fill-rule="nonzero"/></g><g clip-path="url(#65c7eee3f2)"><path fill="#ffffff" d="M 202.503906 199.585938 C 194.183594 199.585938 187.226562 200.75 179.96875 203.375 C 173.070312 205.875 165.894531 209.664062 156.804688 214.472656 C 155.976562 214.910156 155.125 215.351562 154.269531 215.816406 C 147.285156 219.5 141.035156 221.296875 135.140625 221.296875 C 126.160156 221.296875 119.878906 217.082031 114.34375 213.359375 C 112.027344 211.808594 109.851562 210.335938 107.703125 209.363281 C 104.300781 207.824219 100.984375 207.070312 97.582031 207.070312 C 91.492188 207.070312 85.722656 209.390625 78.410156 212.34375 L 78.078125 212.480469 C 75.972656 213.332031 73.5625 213.757812 70.902344 213.757812 C 62.128906 213.757812 52.210938 209.199219 44.980469 205.875 C 41.402344 204.226562 38.5625 202.921875 36.648438 202.523438 C 36.332031 202.453125 35.972656 202.425781 35.574219 202.425781 C 32.792969 202.425781 27.792969 204.019531 21.457031 206.054688 C 12.410156 208.921875 1.144531 212.507812 -7.339844 212.507812 C -11.707031 212.507812 -14.902344 211.53125 -16.84375 209.597656 L -17.726562 208.730469 L -17.726562 210.476562 C -15.355469 212.835938 -11.695312 213.742188 -7.339844 213.742188 C 7.132812 213.742188 29.128906 203.636719 35.589844 203.636719 C 35.90625 203.636719 36.167969 203.664062 36.414062 203.703125 C 41.925781 204.84375 57.570312 214.953125 70.929688 214.953125 C 73.601562 214.953125 76.175781 214.554688 78.558594 213.59375 C 85.859375 210.652344 91.660156 208.277344 97.59375 208.277344 C 100.679688 208.277344 103.804688 208.921875 107.207031 210.460938 C 114.21875 213.648438 121.917969 222.507812 135.152344 222.507812 C 140.648438 222.507812 147.109375 220.980469 154.863281 216.890625 C 174.984375 206.273438 184.527344 200.804688 202.515625 200.804688 C 212.199219 200.804688 222.375 202.425781 230.199219 210.476562 L 230.199219 208.730469 C 226.617188 205.324219 222.417969 202.921875 217.40625 201.4375 C 213.121094 200.175781 208.398438 199.585938 202.503906 199.585938 Z M 202.503906 199.585938 " fill-opacity="1" fill-rule="nonzero"/></g><g clip-path="url(#7945d174f4)"><path fill="#002f59" d="M 201.179688 200.132812 C 197.820312 200.132812 194.472656 200.847656 191.234375 202.261719 C 188.441406 203.484375 185.5625 205.171875 182.53125 206.972656 C 172.449219 212.917969 159.917969 220.324219 136.101562 220.324219 C 135.746094 220.324219 135.386719 220.324219 135.027344 220.324219 C 129.273438 220.265625 123.199219 218.082031 117.316406 215.96875 C 111.476562 213.867188 105.953125 211.875 100.804688 211.875 C 97.609375 211.875 94.894531 212.644531 92.484375 214.238281 C 88.203125 217.066406 81.878906 218.621094 74.691406 218.621094 C 63.453125 218.621094 53.191406 214.828125 49.167969 209.183594 C 47.074219 206.257812 46.664062 202.949219 47.914062 199.324219 L 48.230469 198.390625 L 47.253906 198.5 C 36.441406 199.734375 27.1875 203.210938 18.964844 209.117188 C 10.535156 215.160156 1.636719 220.75 -6.433594 220.75 C -10.621094 220.75 -14.171875 219.238281 -17.285156 216.132812 L -17.726562 215.695312 L -17.726562 225.003906 L 230.1875 225.003906 L 230.1875 215.695312 C 227.195312 212.742188 222.804688 208.648438 217.734375 205.476562 C 212.0625 201.933594 206.496094 200.132812 201.179688 200.132812 Z M 201.179688 200.132812 " fill-opacity="1" fill-rule="nonzero"/></g><g clip-path="url(#4ab226ce7f)"><path fill="#ffffff" d="M 210.050781 201.054688 C 207.0625 200.039062 204.085938 199.515625 201.179688 199.515625 C 197.722656 199.515625 194.292969 200.242188 190.988281 201.699219 C 188.152344 202.933594 185.273438 204.636719 182.214844 206.4375 C 172.203125 212.34375 159.75 219.691406 136.101562 219.691406 C 135.746094 219.691406 135.386719 219.691406 135.027344 219.691406 C 129.382812 219.636719 123.351562 217.464844 117.523438 215.363281 C 111.628906 213.234375 106.066406 211.246094 100.804688 211.230469 C 97.484375 211.230469 94.648438 212.039062 92.140625 213.6875 C 87.953125 216.449219 81.753906 217.972656 74.675781 217.972656 C 63.628906 217.972656 53.578125 214.292969 49.664062 208.800781 C 47.695312 206.054688 47.308594 202.921875 48.492188 199.5 L 49.140625 197.648438 L 47.1875 197.867188 C 36.277344 199.117188 26.925781 202.632812 18.605469 208.59375 C 10.671875 214.28125 1.488281 220.101562 -6.417969 220.101562 C -10.441406 220.101562 -13.84375 218.648438 -16.832031 215.667969 L -17.726562 214.816406 L -17.726562 216.558594 C -14.308594 219.964844 -10.480469 221.351562 -6.433594 221.351562 C 1.75 221.351562 10.851562 215.695312 19.324219 209.609375 C 25.933594 204.871094 34.816406 200.546875 47.324219 199.101562 C 42.886719 211.875 59.222656 219.210938 74.675781 219.210938 C 81.519531 219.210938 88.203125 217.769531 92.816406 214.71875 C 95.265625 213.097656 97.953125 212.464844 100.789062 212.464844 C 111.089844 212.464844 123.515625 220.804688 135 220.914062 C 135.375 220.914062 135.730469 220.914062 136.089844 220.914062 C 167.503906 220.914062 179.789062 207.921875 191.46875 202.8125 C 194.789062 201.355469 198.027344 200.738281 201.167969 200.738281 C 212.859375 200.738281 223.066406 209.457031 230.171875 216.546875 L 230.171875 214.800781 C 227.183594 211.863281 222.925781 207.976562 218.039062 204.925781 C 215.367188 203.265625 212.667969 201.960938 210.050781 201.054688 Z M 210.050781 201.054688 " fill-opacity="1" fill-rule="nonzero"/></g><g clip-path="url(#0f38d6db63)"><g clip-path="url(#91e791b5f8)"><path fill="#a6a6a6" d="M 176.730469 151.640625 L 205.902344 151.640625 L 205.902344 177.167969 L 176.730469 177.167969 Z M 176.730469 151.640625 " fill-opacity="1" fill-rule="nonzero"/></g></g></svg>